<svg id="my-svg" width="100%" xmlns="http://www.w3.org/2000/svg" xmlns:xlink="http://www.w3.org/1999/xlink" class="flowchart" style="max-width: 1377.87px; background-color: white;" viewBox="0 0 1377.87109375 2370.63427734375" role="graphics-document document" aria-roledescription="flowchart-v2"><style>#my-svg{font-family:"trebuchet ms",verdana,arial,sans-serif;font-size:16px;fill:#333;}@keyframes edge-animation-frame{from{stroke-dashoffset:0;}}@keyframes dash{to{stroke-dashoffset:0;}}#my-svg .edge-animation-slow{stroke-dasharray:9,5!important;stroke-dashoffset:900;animation:dash 50s linear infinite;stroke-linecap:round;}#my-svg .edge-animation-fast{stroke-dasharray:9,5!important;stroke-dashoffset:900;animation:dash 20s linear infinite;stroke-linecap:round;}#my-svg .error-icon{fill:#552222;}#my-svg .error-text{fill:#552222;stroke:#552222;}#my-svg .edge-thickness-normal{stroke-width:1px;}#my-svg .edge-thickness-thick{stroke-width:3.5px;}#my-svg .edge-pattern-solid{stroke-dasharray:0;}#my-svg .edge-thickness-invisible{stroke-width:0;fill:none;}#my-svg .edge-pattern-dashed{stroke-dasharray:3;}#my-svg .edge-pattern-dotted{stroke-dasharray:2;}#my-svg .marker{fill:#333333;stroke:#333333;}#my-svg .marker.cross{stroke:#333333;}#my-svg svg{font-family:"trebuchet ms",verdana,arial,sans-serif;font-size:16px;}#my-svg p{margin:0;}#my-svg .label{font-family:"trebuchet ms",verdana,arial,sans-serif;color:#333;}#my-svg .cluster-label text{fill:#333;}#my-svg .cluster-label span{color:#333;}#my-svg .cluster-label span p{background-color:transparent;}#my-svg .label text,#my-svg span{fill:#333;color:#333;}#my-svg .node rect,#my-svg .node circle,#my-svg .node ellipse,#my-svg .node polygon,#my-svg .node path{fill:#ECECFF;stroke:#9370DB;stroke-width:1px;}#my-svg .rough-node .label text,#my-svg .node .label text,#my-svg .image-shape .label,#my-svg .icon-shape .label{text-anchor:middle;}#my-svg .node .katex path{fill:#000;stroke:#000;stroke-width:1px;}#my-svg .rough-node .label,#my-svg .node .label,#my-svg .image-shape .label,#my-svg .icon-shape .label{text-align:center;}#my-svg .node.clickable{cursor:pointer;}#my-svg .root .anchor path{fill:#333333!important;stroke-width:0;stroke:#333333;}#my-svg .arrowheadPath{fill:#333333;}#my-svg .edgePath .path{stroke:#333333;stroke-width:1px;}#my-svg .flowchart-link{stroke:#333333;fill:none;}#my-svg .edgeLabel{background-color:rgba(232,232,232, 0.8);text-align:center;}#my-svg .edgeLabel p{background-color:rgba(232,232,232, 0.8);}#my-svg .edgeLabel rect{opacity:0.5;background-color:rgba(232,232,232, 0.8);fill:rgba(232,232,232, 0.8);}#my-svg .labelBkg{background-color:rgba(232, 232, 232, 0.5);}#my-svg .cluster rect{fill:#ffffde;stroke:#aaaa33;stroke-width:1px;}#my-svg .cluster text{fill:#333;}#my-svg .cluster span{color:#333;}#my-svg div.mermaidTooltip{position:absolute;text-align:center;max-width:200px;padding:2px;font-family:"trebuchet ms",verdana,arial,sans-serif;font-size:12px;background:hsl(80, 100%, 96.2745098039%);border:1px solid #aaaa33;border-radius:2px;pointer-events:none;z-index:100;}#my-svg .flowchartTitleText{text-anchor:middle;font-size:18px;fill:#333;}#my-svg rect.text{fill:none;stroke-width:0;}#my-svg .icon-shape,#my-svg .image-shape{background-color:rgba(232,232,232, 0.8);text-align:center;}#my-svg .icon-shape p,#my-svg .image-shape p{background-color:rgba(232,232,232, 0.8);padding:2px;}#my-svg .icon-shape .label rect,#my-svg .image-shape .label rect{opacity:0.5;background-color:rgba(232,232,232, 0.8);fill:rgba(232,232,232, 0.8);}#my-svg .label-icon{display:inline-block;height:1em;overflow:visible;vertical-align:-0.125em;}#my-svg .node .label-icon path{fill:currentColor;stroke:revert;stroke-width:revert;}#my-svg .node .neo-node{stroke:#9370DB;}#my-svg [data-look="neo"].node rect,#my-svg [data-look="neo"].cluster rect,#my-svg [data-look="neo"].node polygon{stroke:#9370DB;filter:drop-shadow(1px 2px 2px rgba(185, 185, 185, 1));}#my-svg [data-look="neo"].node path{stroke:#9370DB;stroke-width:1px;}#my-svg [data-look="neo"].node .outer-path{filter:drop-shadow(1px 2px 2px rgba(185, 185, 185, 1));}#my-svg [data-look="neo"].node .neo-line path{stroke:#9370DB;filter:none;}#my-svg [data-look="neo"].node circle{stroke:#9370DB;filter:drop-shadow(1px 2px 2px rgba(185, 185, 185, 1));}#my-svg [data-look="neo"].node circle .state-start{fill:#000000;}#my-svg [data-look="neo"].icon-shape .icon{fill:#9370DB;filter:drop-shadow(1px 2px 2px rgba(185, 185, 185, 1));}#my-svg [data-look="neo"].icon-shape .icon-neo path{stroke:#9370DB;filter:drop-shadow(1px 2px 2px rgba(185, 185, 185, 1));}#my-svg :root{--mermaid-font-family:"trebuchet ms",verdana,arial,sans-serif;}#my-svg .command&gt;*{fill:#a6d8ff!important;stroke:#1e6fb8!important;color:#000!important;}#my-svg .command span{fill:#a6d8ff!important;stroke:#1e6fb8!important;color:#000!important;}#my-svg .command tspan{fill:#000!important;}#my-svg .system&gt;*{fill:#fff2a8!important;stroke:#a08a00!important;color:#000!important;}#my-svg .system span{fill:#fff2a8!important;stroke:#a08a00!important;color:#000!important;}#my-svg .system tspan{fill:#000!important;}#my-svg .event&gt;*{fill:#ffb976!important;stroke:#a85800!important;color:#000!important;}#my-svg .event span{fill:#ffb976!important;stroke:#a85800!important;color:#000!important;}#my-svg .event tspan{fill:#000!important;}#my-svg .policy&gt;*{fill:#d6b8ff!important;stroke:#6b3fb0!important;color:#000!important;}#my-svg .policy span{fill:#d6b8ff!important;stroke:#6b3fb0!important;color:#000!important;}#my-svg .policy tspan{fill:#000!important;}#my-svg .store&gt;*{fill:#b8e8c5!important;stroke:#2f7a45!important;color:#000!important;}#my-svg .store span{fill:#b8e8c5!important;stroke:#2f7a45!important;color:#000!important;}#my-svg .store tspan{fill:#000!important;}#my-svg .queue&gt;*{fill:#e8e8e8!important;stroke:#666!important;color:#000!important;}#my-svg .queue span{fill:#e8e8e8!important;stroke:#666!important;color:#000!important;}#my-svg .queue tspan{fill:#000!important;}#my-svg .dlq&gt;*{fill:#f8c8c8!important;stroke:#a83434!important;color:#000!important;}#my-svg .dlq span{fill:#f8c8c8!important;stroke:#a83434!important;color:#000!important;}#my-svg .dlq tspan{fill:#000!important;}</style><g><marker id="my-svg_flowchart-v2-pointEnd" class="marker flowchart-v2" viewBox="0 0 10 10" refX="5" refY="5" markerUnits="userSpaceOnUse" markerWidth="8" markerHeight="8" orient="auto"><path d="M 0 0 L 10 5 L 0 10 z" class="arrowMarkerPath" style="stroke-width: 1; stroke-dasharray: 1, 0;"/></marker><marker id="my-svg_flowchart-v2-pointStart" class="marker flowchart-v2" viewBox="0 0 10 10" refX="4.5" refY="5" markerUnits="userSpaceOnUse" markerWidth="8" markerHeight="8" orient="auto"><path d="M 0 5 L 10 10 L 10 0 z" class="arrowMarkerPath" style="stroke-width: 1; stroke-dasharray: 1, 0;"/></marker><marker id="my-svg_flowchart-v2-pointEnd-margin" class="marker flowchart-v2" viewBox="0 0 11.5 14" refX="11.5" refY="7" markerUnits="userSpaceOnUse" markerWidth="10.5" markerHeight="14" orient="auto"><path d="M 0 0 L 11.5 7 L 0 14 z" class="arrowMarkerPath" style="stroke-width: 0; stroke-dasharray: 1, 0;"/></marker><marker id="my-svg_flowchart-v2-pointStart-margin" class="marker flowchart-v2" viewBox="0 0 11.5 14" refX="1" refY="7" markerUnits="userSpaceOnUse" markerWidth="11.5" markerHeight="14" orient="auto"><polygon points="0,7 11.5,14 11.5,0" class="arrowMarkerPath" style="stroke-width: 0; stroke-dasharray: 1, 0;"/></marker><marker id="my-svg_flowchart-v2-circleEnd" class="marker flowchart-v2" viewBox="0 0 10 10" refX="11" refY="5" markerUnits="userSpaceOnUse" markerWidth="11" markerHeight="11" orient="auto"><circle cx="5" cy="5" r="5" class="arrowMarkerPath" style="stroke-width: 1; stroke-dasharray: 1, 0;"/></marker><marker id="my-svg_flowchart-v2-circleStart" class="marker flowchart-v2" viewBox="0 0 10 10" refX="-1" refY="5" markerUnits="userSpaceOnUse" markerWidth="11" markerHeight="11" orient="auto"><circle cx="5" cy="5" r="5" class="arrowMarkerPath" style="stroke-width: 1; stroke-dasharray: 1, 0;"/></marker><marker id="my-svg_flowchart-v2-circleEnd-margin" class="marker flowchart-v2" viewBox="0 0 10 10" refY="5" refX="12.25" markerUnits="userSpaceOnUse" markerWidth="14" markerHeight="14" orient="auto"><circle cx="5" cy="5" r="5" class="arrowMarkerPath" style="stroke-width: 0; stroke-dasharray: 1, 0;"/></marker><marker id="my-svg_flowchart-v2-circleStart-margin" class="marker flowchart-v2" viewBox="0 0 10 10" refX="-2" refY="5" markerUnits="userSpaceOnUse" markerWidth="14" markerHeight="14" orient="auto"><circle cx="5" cy="5" r="5" class="arrowMarkerPath" style="stroke-width: 0; stroke-dasharray: 1, 0;"/></marker><marker id="my-svg_flowchart-v2-crossEnd" class="marker cross flowchart-v2" viewBox="0 0 11 11" refX="12" refY="5.2" markerUnits="userSpaceOnUse" markerWidth="11" markerHeight="11" orient="auto"><path d="M 1,1 l 9,9 M 10,1 l -9,9" class="arrowMarkerPath" style="stroke-width: 2; stroke-dasharray: 1, 0;"/></marker><marker id="my-svg_flowchart-v2-crossStart" class="marker cross flowchart-v2" viewBox="0 0 11 11" refX="-1" refY="5.2" markerUnits="userSpaceOnUse" markerWidth="11" markerHeight="11" orient="auto"><path d="M 1,1 l 9,9 M 10,1 l -9,9" class="arrowMarkerPath" style="stroke-width: 2; stroke-dasharray: 1, 0;"/></marker><marker id="my-svg_flowchart-v2-crossEnd-margin" class="marker cross flowchart-v2" viewBox="0 0 15 15" refX="17.7" refY="7.5" markerUnits="userSpaceOnUse" markerWidth="12" markerHeight="12" orient="auto"><path d="M 1,1 L 14,14 M 1,14 L 14,1" class="arrowMarkerPath" style="stroke-width: 2.5;"/></marker><marker id="my-svg_flowchart-v2-crossStart-margin" class="marker cross flowchart-v2" viewBox="0 0 15 15" refX="-3.5" refY="7.5" markerUnits="userSpaceOnUse" markerWidth="12" markerHeight="12" orient="auto"><path d="M 1,1 L 14,14 M 1,14 L 14,1" class="arrowMarkerPath" style="stroke-width: 2.5; stroke-dasharray: 1, 0;"/></marker><g class="root"><g class="clusters"/><g class="edgePaths"><path d="M219.723,142.426L219.723,146.593C219.723,150.76,219.723,159.093,219.793,166.843C219.863,174.593,220.004,181.76,220.074,185.344L220.144,188.927" id="my-svg-L_Q_Msg_0" class="edge-thickness-normal edge-pattern-solid edge-thickness-normal edge-pattern-solid flowchart-link" style=";" data-edge="true" data-et="edge" data-id="L_Q_Msg_0" data-points="W3sieCI6MjE5LjcyMjY1NjI1LCJ5IjoxNDIuNDI2NDY3ODk1NTA3OH0seyJ4IjoyMTkuNzIyNjU2MjUsInkiOjE2Ny40MjY0Njc4OTU1MDc4fSx7IngiOjIyMC4yMjI2NTYyNSwieSI6MTkyLjkyNjQ2Nzg5NTUwNzc4fV0=" data-look="classic" marker-end="url(#my-svg_flowchart-v2-pointEnd)"/><path d="M220.223,303.926L220.139,308.01C220.056,312.093,219.889,320.26,219.806,327.843C219.723,335.426,219.723,342.426,219.723,345.926L219.723,349.426" id="my-svg-L_Msg_List_0" class="edge-thickness-normal edge-pattern-solid edge-thickness-normal edge-pattern-solid flowchart-link" style=";" data-edge="true" data-et="edge" data-id="L_Msg_List_0" data-points="W3sieCI6MjIwLjIyMjY1NjI1LCJ5IjozMDMuOTI2NDY3ODk1NTA3ODd9LHsieCI6MjE5LjcyMjY1NjI1LCJ5IjozMjguNDI2NDY3ODk1NTA3OH0seyJ4IjoyMTkuNzIyNjU2MjUsInkiOjM1My40MjY0Njc4OTU1MDc4fV0=" data-look="classic" marker-end="url(#my-svg_flowchart-v2-pointEnd)"/><path d="M187.215,483.021L185.473,486.589C183.732,490.156,180.249,497.291,178.507,504.359C176.766,511.426,176.766,518.426,176.766,521.926L176.766,525.426" id="my-svg-L_List_S3Sources_0" class="edge-thickness-normal edge-pattern-solid edge-thickness-normal edge-pattern-solid flowchart-link" style=";" data-edge="true" data-et="edge" data-id="L_List_S3Sources_0" data-points="W3sieCI6MTg4Ljk2OTMyNzA1OTY1OTEsInkiOjQ3OS40MjY0Njc4OTU1MDc4fSx7IngiOjE3Ni43NjU2MjUsInkiOjUwNC40MjY0Njc4OTU1MDc4fSx7IngiOjE3Ni43NjU2MjUsInkiOjUyOS40MjY0Njc4OTU1MDc4fV0=" data-look="classic" marker-start="url(#my-svg_flowchart-v2-pointStart)" marker-end="url(#my-svg_flowchart-v2-pointEnd)"/><path d="M349.723,476.636L359.723,481.268C369.724,485.899,389.725,495.163,399.726,505.92C409.727,516.677,409.727,528.928,409.727,535.053L409.727,541.179" id="my-svg-L_List_Count_0" class="edge-thickness-normal edge-pattern-solid edge-thickness-normal edge-pattern-solid flowchart-link" style=";" data-edge="true" data-et="edge" data-id="L_List_Count_0" data-points="W3sieCI6MzQ5LjcyMjY1NjI1LCJ5Ijo0NzYuNjM1NzU2MzU1ODYwMTd9LHsieCI6NDA5LjcyNjU2MjUsInkiOjUwNC40MjY0Njc4OTU1MDc4fSx7IngiOjQwOS43MjY1NjI1LCJ5Ijo1NDUuMTc4NzcxOTcyNjU2Mn1d" data-look="classic" marker-end="url(#my-svg_flowchart-v2-pointEnd)"/><path d="M358.457,644.831L321.714,662.168C284.971,679.505,211.486,714.179,174.743,737.016C138,759.853,138,770.853,138,776.353L138,781.853" id="my-svg-L_Count_NoOp_0" class="edge-thickness-normal edge-pattern-solid edge-thickness-normal edge-pattern-solid flowchart-link" style=";" data-edge="true" data-et="edge" data-id="L_Count_NoOp_0" data-points="W3sieCI6MzU4LjQ1Njk5NDA3Nzc4MDcsInkiOjY0NC44MzEwNzg1NTA0MzY5fSx7IngiOjEzOCwieSI6NzQ4Ljg1Mjk1MTA0OTgwNDd9LHsieCI6MTM4LCJ5Ijo3ODUuODUyOTUxMDQ5ODA0N31d" data-look="classic" marker-end="url(#my-svg_flowchart-v2-pointEnd)"/><path d="M466.664,639.163L522.858,657.445C579.052,675.726,691.44,712.29,747.634,745.238C803.828,778.186,803.828,807.52,803.828,834.853C803.828,862.186,803.828,887.52,803.828,903.686C803.828,919.853,803.828,926.853,803.828,930.353L803.828,933.853" id="my-svg-L_Count_Single_0" class="edge-thickness-normal edge-pattern-solid edge-thickness-normal edge-pattern-solid flowchart-link" style=";" data-edge="true" data-et="edge" data-id="L_Count_Single_0" data-points="W3sieCI6NDY2LjY2NDAxMzE0MTQ5NTEsInkiOjYzOS4xNjMxOTYzMzExNjExfSx7IngiOjgwMy44MjgxMjUsInkiOjc0OC44NTI5NTEwNDk4MDQ3fSx7IngiOjgwMy44MjgxMjUsInkiOjgzNi44NTI5NTEwNDk4MDQ3fSx7IngiOjgwMy44MjgxMjUsInkiOjkxMi44NTI5NTEwNDk4MDQ3fSx7IngiOjgwMy44MjgxMjUsInkiOjkzNy44NTI5NTEwNDk4MDQ3fV0=" data-look="classic" marker-end="url(#my-svg_flowchart-v2-pointEnd)"/><path d="M427.245,678.582L430.787,690.294C434.328,702.005,441.41,725.429,444.951,744.641C448.492,763.853,448.492,778.853,448.492,786.353L448.492,793.853" id="my-svg-L_Count_Selector_0" class="edge-thickness-normal edge-pattern-solid edge-thickness-normal edge-pattern-solid flowchart-link" style=";" data-edge="true" data-et="edge" data-id="L_Count_Selector_0" data-points="W3sieCI6NDI3LjI0NTQ4ODQ4ODg4NzgsInkiOjY3OC41ODE3MjA5ODM3NjgzfSx7IngiOjQ0OC40OTIxODc1LCJ5Ijo3NDguODUyOTUxMDQ5ODA0N30seyJ4Ijo0NDguNDkyMTg3NSwieSI6Nzk3Ljg1Mjk1MTA0OTgwNDd9XQ==" data-look="classic" marker-end="url(#my-svg_flowchart-v2-pointEnd)"/><path d="M498.77,878.401L505.719,884.143C512.667,889.885,526.564,901.369,533.512,912.611C540.461,923.853,540.461,934.853,540.461,940.353L540.461,945.853" id="my-svg-L_Selector_DS_0" class="edge-thickness-normal edge-pattern-solid edge-thickness-normal edge-pattern-solid flowchart-link" style=";" data-edge="true" data-et="edge" data-id="L_Selector_DS_0" data-points="W3sieCI6NDk1LjY4NjY3NzYzMTU3ODk2LCJ5Ijo4NzUuODUyOTUxMDQ5ODA0N30seyJ4Ijo1NDAuNDYwOTM3NSwieSI6OTEyLjg1Mjk1MTA0OTgwNDd9LHsieCI6NTQwLjQ2MDkzNzUsInkiOjk0OS44NTI5NTEwNDk4MDQ3fV0=" data-look="classic" marker-start="url(#my-svg_flowchart-v2-pointStart)" marker-end="url(#my-svg_flowchart-v2-pointEnd)"/><path d="M401.298,875.853L393.835,882.02C386.373,888.186,371.448,900.52,363.986,910.258C356.523,919.996,356.523,927.139,356.523,930.711L356.523,934.283" id="my-svg-L_Selector_Decision_0" class="edge-thickness-normal edge-pattern-solid edge-thickness-normal edge-pattern-solid flowchart-link" style=";" data-edge="true" data-et="edge" data-id="L_Selector_Decision_0" data-points="W3sieCI6NDAxLjI5NzY5NzM2ODQyMTA0LCJ5Ijo4NzUuODUyOTUxMDQ5ODA0N30seyJ4IjozNTYuNTIzNDM3NSwieSI6OTEyLjg1Mjk1MTA0OTgwNDd9LHsieCI6MzU2LjUyMzQzNzUsInkiOjkzOC4yODI2Mzg1NDk4MDQ3fV0=" data-look="classic" marker-end="url(#my-svg_flowchart-v2-pointEnd)"/><path d="M341.903,1024.803L338.375,1033.478C334.847,1042.153,327.791,1059.503,324.262,1073.678C320.734,1087.853,320.734,1098.853,320.734,1104.353L320.734,1109.853" id="my-svg-L_Decision_TieEvent_0" class="edge-thickness-normal edge-pattern-solid edge-thickness-normal edge-pattern-solid flowchart-link" style=";" data-edge="true" data-et="edge" data-id="L_Decision_TieEvent_0" data-points="W3sieCI6MzQxLjkwMjg4ODMzMjI4MTQ2LCJ5IjoxMDI0LjgwMjcxNDM4MjA4NjJ9LHsieCI6MzIwLjczNDM3NSwieSI6MTA3Ni44NTI5NTEwNDk4MDQ3fSx7IngiOjMyMC43MzQzNzUsInkiOjExMTMuODUyOTUxMDQ5ODA0N31d" data-look="classic" marker-end="url(#my-svg_flowchart-v2-pointEnd)"/><path d="M388.931,1007.016L409.7,1018.655C430.468,1030.295,472.006,1053.574,516.474,1077.082C560.942,1100.589,608.341,1124.326,632.04,1136.194L655.74,1148.062" id="my-svg-L_Decision_Resolve_0" class="edge-thickness-normal edge-pattern-solid edge-thickness-normal edge-pattern-solid flowchart-link" style=";" data-edge="true" data-et="edge" data-id="L_Decision_Resolve_0" data-points="W3sieCI6Mzg4LjkzMTE2NzI5NzcyODE3LCJ5IjoxMDA3LjAxNTUzMzc1MjA3NjV9LHsieCI6NTEzLjU0Mjk2ODc1LCJ5IjoxMDc2Ljg1Mjk1MTA0OTgwNDd9LHsieCI6NjU5LjMxNjM3MTM3Mjc2NzksInkiOjExNDkuODUyOTUxMDQ5ODA0N31d" data-look="classic" marker-end="url(#my-svg_flowchart-v2-pointEnd)"/><path d="M803.828,1039.853L803.828,1046.02C803.828,1052.186,803.828,1064.52,796.931,1082.28C790.033,1100.04,776.238,1123.228,769.341,1134.822L762.443,1146.415" id="my-svg-L_Single_Resolve_0" class="edge-thickness-normal edge-pattern-solid edge-thickness-normal edge-pattern-solid flowchart-link" style=";" data-edge="true" data-et="edge" data-id="L_Single_Resolve_0" data-points="W3sieCI6ODAzLjgyODEyNSwieSI6MTAzOS44NTI5NTEwNDk4MDQ3fSx7IngiOjgwMy44MjgxMjUsInkiOjEwNzYuODUyOTUxMDQ5ODA0N30seyJ4Ijo3NjAuMzk3ODA5NzA5ODIxNCwieSI6MTE0OS44NTI5NTEwNDk4MDQ3fV0=" data-look="classic" marker-end="url(#my-svg_flowchart-v2-pointEnd)"/><path d="M737.195,1227.853L737.195,1238.02C737.195,1248.186,737.195,1268.52,737.195,1282.186C737.195,1295.853,737.195,1302.853,737.195,1306.353L737.195,1309.853" id="my-svg-L_Resolve_Find_0" class="edge-thickness-normal edge-pattern-solid edge-thickness-normal edge-pattern-solid flowchart-link" style=";" data-edge="true" data-et="edge" data-id="L_Resolve_Find_0" data-points="W3sieCI6NzM3LjE5NTMxMjUsInkiOjEyMjcuODUyOTUxMDQ5ODA0N30seyJ4Ijo3MzcuMTk1MzEyNSwieSI6MTI4OC44NTI5NTEwNDk4MDQ3fSx7IngiOjczNy4xOTUzMTI1LCJ5IjoxMzEzLjg1Mjk1MTA0OTgwNDd9XQ==" data-look="classic" marker-end="url(#my-svg_flowchart-v2-pointEnd)"/><path d="M623.589,1384.1L603.742,1389.559C583.895,1395.018,544.201,1405.935,524.355,1440.061C504.508,1474.186,504.508,1531.52,504.508,1588.853C504.508,1646.186,504.508,1703.52,505.289,1740.461C506.071,1777.403,507.635,1793.952,508.416,1802.227L509.198,1810.502" id="my-svg-L_Find_Articles_0" class="edge-thickness-normal edge-pattern-solid edge-thickness-normal edge-pattern-solid flowchart-link" style=";" data-edge="true" data-et="edge" data-id="L_Find_Articles_0" data-points="W3sieCI6NjI3LjQ0NTMxMjUsInkiOjEzODMuMDM5MzU5ODU5OTA0Mn0seyJ4Ijo1MDQuNTA3ODEyNSwieSI6MTQxNi44NTI5NTEwNDk4MDQ3fSx7IngiOjUwNC41MDc4MTI1LCJ5IjoxNTg4Ljg1Mjk1MTA0OTgwNDd9LHsieCI6NTA0LjUwNzgxMjUsInkiOjE3NjAuODUyOTUxMDQ5ODA0N30seyJ4Ijo1MDkuNTc0MDI4NDU2MjM2NiwieSI6MTgxNC40ODQyMzM2OTM0ODI4fV0=" data-look="classic" marker-start="url(#my-svg_flowchart-v2-pointStart)" marker-end="url(#my-svg_flowchart-v2-pointEnd)"/><path d="M804.469,1391.853L811.657,1396.02C818.844,1400.186,833.219,1408.52,840.406,1416.186C847.594,1423.853,847.594,1430.853,847.594,1434.353L847.594,1437.853" id="my-svg-L_Find_Promote_0" class="edge-thickness-normal edge-pattern-solid edge-thickness-normal edge-pattern-solid flowchart-link" style=";" data-edge="true" data-et="edge" data-id="L_Find_Promote_0" data-points="W3sieCI6ODA0LjQ2OTM2MDM1MTU2MjUsInkiOjEzOTEuODUyOTUxMDQ5ODA0N30seyJ4Ijo4NDcuNTkzNzUsInkiOjE0MTYuODUyOTUxMDQ5ODA0N30seyJ4Ijo4NDcuNTkzNzUsInkiOjE0NDEuODUyOTUxMDQ5ODA0N31d" data-look="classic" marker-end="url(#my-svg_flowchart-v2-pointEnd)"/><path d="M751.626,1735.853L748.906,1740.02C746.185,1744.186,740.745,1752.52,738.025,1764.653C735.305,1776.787,735.305,1792.721,735.305,1800.688L735.305,1808.655" id="my-svg-L_Promote_S3Canon_0" class="edge-thickness-normal edge-pattern-solid edge-thickness-normal edge-pattern-solid flowchart-link" style=";" data-edge="true" data-et="edge" data-id="L_Promote_S3Canon_0" data-points="W3sieCI6NzUxLjYyNTc3MjE2NTY5NzYsInkiOjE3MzUuODUyOTUxMDQ5ODA0N30seyJ4Ijo3MzUuMzA0Njg3NSwieSI6MTc2MC44NTI5NTEwNDk4MDQ3fSx7IngiOjczNS4zMDQ2ODc1LCJ5IjoxODEyLjY1NTM4NDA2MzcyMDd9XQ==" data-look="classic" marker-end="url(#my-svg_flowchart-v2-pointEnd)"/><path d="M717.594,1684.947L700.479,1697.598C683.365,1710.249,649.135,1735.551,623.988,1757.178C598.841,1778.805,582.775,1796.756,574.742,1805.732L566.71,1814.708" id="my-svg-L_Promote_Articles_0" class="edge-thickness-normal edge-pattern-solid edge-thickness-normal edge-pattern-solid flowchart-link" style=";" data-edge="true" data-et="edge" data-id="L_Promote_Articles_0" data-points="W3sieCI6NzE3LjU5Mzc1LCJ5IjoxNjg0Ljk0NzQ5ODQ1NzgwOX0seyJ4Ijo2MTQuOTA2MjUsInkiOjE3NjAuODUyOTUxMDQ5ODA0N30seyJ4Ijo1NjQuMDQyMjMzMzk1NjI3NiwieSI6MTgxNy42ODg0NjY1MTk3MzM1fV0=" data-look="classic" marker-end="url(#my-svg_flowchart-v2-pointEnd)"/><path d="M943.562,1735.853L946.282,1740.02C949.002,1744.186,954.442,1752.52,957.163,1760.186C959.883,1767.853,959.883,1774.853,959.883,1778.353L959.883,1781.853" id="my-svg-L_Promote_Changed_0" class="edge-thickness-normal edge-pattern-solid edge-thickness-normal edge-pattern-solid flowchart-link" style=";" data-edge="true" data-et="edge" data-id="L_Promote_Changed_0" data-points="W3sieCI6OTQzLjU2MTcyNzgzNDMwMjQsInkiOjE3MzUuODUyOTUxMDQ5ODA0N30seyJ4Ijo5NTkuODgyODEyNSwieSI6MTc2MC44NTI5NTEwNDk4MDQ3fSx7IngiOjk1OS44ODI4MTI1LCJ5IjoxNzg1Ljg1Mjk1MTA0OTgwNDd9XQ==" data-look="classic" marker-end="url(#my-svg_flowchart-v2-pointEnd)"/><path d="M917.154,1904.734L902.242,1918.022C887.331,1931.31,857.507,1957.886,842.595,1979.939C827.684,2001.991,827.684,2019.52,827.684,2028.284L827.684,2037.048" id="my-svg-L_Changed_CAC_0" class="edge-thickness-normal edge-pattern-solid edge-thickness-normal edge-pattern-solid flowchart-link" style=";" data-edge="true" data-et="edge" data-id="L_Changed_CAC_0" data-points="W3sieCI6OTE3LjE1NDIxMzg5OTAwMTUsInkiOjE5MDQuNzMzNzI3NDQ4ODA2M30seyJ4Ijo4MjcuNjgzNTkzNzUsInkiOjE5ODQuNDYyMzI2MDQ5ODA0N30seyJ4Ijo4MjcuNjgzNTkzNzUsInkiOjIwNDEuMDQ4MjYzNTQ5ODA0N31d" data-look="classic" marker-end="url(#my-svg_flowchart-v2-pointEnd)"/><path d="M1002.611,1904.734L1017.523,1918.022C1032.435,1931.31,1062.258,1957.886,1077.17,1976.674C1092.082,1995.462,1092.082,2006.462,1092.082,2011.962L1092.082,2017.462" id="my-svg-L_Changed_Branch_0" class="edge-thickness-normal edge-pattern-solid edge-thickness-normal edge-pattern-solid flowchart-link" style=";" data-edge="true" data-et="edge" data-id="L_Changed_Branch_0" data-points="W3sieCI6MTAwMi42MTE0MTExMDA5OTg1LCJ5IjoxOTA0LjczMzcyNzQ0ODgwNjN9LHsieCI6MTA5Mi4wODIwMzEyNSwieSI6MTk4NC40NjIzMjYwNDk4MDQ3fSx7IngiOjEwOTIuMDgyMDMxMjUsInkiOjIwMjEuNDYyMzI2MDQ5ODA0N31d" data-look="classic" marker-end="url(#my-svg_flowchart-v2-pointEnd)"/><path d="M1046.442,2140.994L1029.428,2154.768C1012.413,2168.541,978.384,2196.088,961.37,2217.361C944.355,2238.634,944.355,2253.634,944.355,2261.134L944.355,2268.634" id="my-svg-L_Branch_LS_0" class="edge-thickness-normal edge-pattern-solid edge-thickness-normal edge-pattern-solid flowchart-link" style=";" data-edge="true" data-et="edge" data-id="L_Branch_LS_0" data-points="W3sieCI6MTA0Ni40NDIwNTMxMDU2Mzc4LCJ5IjoyMTQwLjk5NDIyMjkwNTQ0Mjd9LHsieCI6OTQ0LjM1NTQ2ODc1LCJ5IjoyMjIzLjYzNDIwMTA0OTgwNDd9LHsieCI6OTQ0LjM1NTQ2ODc1LCJ5IjoyMjcyLjYzNDIwMTA0OTgwNDd9XQ==" data-look="classic" marker-end="url(#my-svg_flowchart-v2-pointEnd)"/><path d="M1137.722,2140.994L1154.736,2154.768C1171.751,2168.541,1205.78,2196.088,1222.794,2215.361C1239.809,2234.634,1239.809,2245.634,1239.809,2251.134L1239.809,2256.634" id="my-svg-L_Branch_ALS_0" class="edge-thickness-normal edge-pattern-solid edge-thickness-normal edge-pattern-solid flowchart-link" style=";" data-edge="true" data-et="edge" data-id="L_Branch_ALS_0" data-points="W3sieCI6MTEzNy43MjIwMDkzOTQzNjI0LCJ5IjoyMTQwLjk5NDIyMjkwNTQ0MjN9LHsieCI6MTIzOS44MDg1OTM3NSwieSI6MjIyMy42MzQyMDEwNDk4MDQ3fSx7IngiOjEyMzkuODA4NTkzNzUsInkiOjIyNjAuNjM0MjAxMDQ5ODA0N31d" data-look="classic" marker-end="url(#my-svg_flowchart-v2-pointEnd)"/></g><g class="edgeLabels"><g class="edgeLabel"><g class="label" data-id="L_Q_Msg_0" transform="translate(0, 0)"><foreignObject width="0" height="0"><div xmlns="http://www.w3.org/1999/xhtml" class="labelBkg" style="display: table-cell; white-space: nowrap; line-height: 1.5; max-width: 200px; text-align: center;"><span class="edgeLabel"></span></div></foreignObject></g></g><g class="edgeLabel"><g class="label" data-id="L_Msg_List_0" transform="translate(0, 0)"><foreignObject width="0" height="0"><div xmlns="http://www.w3.org/1999/xhtml" class="labelBkg" style="display: table-cell; white-space: nowrap; line-height: 1.5; max-width: 200px; text-align: center;"><span class="edgeLabel"></span></div></foreignObject></g></g><g class="edgeLabel"><g class="label" data-id="L_List_S3Sources_0" transform="translate(0, 0)"><foreignObject width="0" height="0"><div xmlns="http://www.w3.org/1999/xhtml" class="labelBkg" style="display: table-cell; white-space: nowrap; line-height: 1.5; max-width: 200px; text-align: center;"><span class="edgeLabel"></span></div></foreignObject></g></g><g class="edgeLabel"><g class="label" data-id="L_List_Count_0" transform="translate(0, 0)"><foreignObject width="0" height="0"><div xmlns="http://www.w3.org/1999/xhtml" class="labelBkg" style="display: table-cell; white-space: nowrap; line-height: 1.5; max-width: 200px; text-align: center;"><span class="edgeLabel"></span></div></foreignObject></g></g><g class="edgeLabel" transform="translate(138, 748.8529510498047)"><g class="label" data-id="L_Count_NoOp_0" transform="translate(-4.453125, -12)"><foreignObject width="8.90625" height="24"><div xmlns="http://www.w3.org/1999/xhtml" class="labelBkg" style="display: table-cell; white-space: nowrap; line-height: 1.5; max-width: 200px; text-align: center;"><span class="edgeLabel"><p>0</p></span></div></foreignObject></g></g><g class="edgeLabel" transform="translate(803.828125, 836.8529510498047)"><g class="label" data-id="L_Count_Single_0" transform="translate(-4.453125, -12)"><foreignObject width="8.90625" height="24"><div xmlns="http://www.w3.org/1999/xhtml" class="labelBkg" style="display: table-cell; white-space: nowrap; line-height: 1.5; max-width: 200px; text-align: center;"><span class="edgeLabel"><p>1</p></span></div></foreignObject></g></g><g class="edgeLabel" transform="translate(448.4921875, 748.8529510498047)"><g class="label" data-id="L_Count_Selector_0" transform="translate(-13.796875, -12)"><foreignObject width="27.59375" height="24"><div xmlns="http://www.w3.org/1999/xhtml" class="labelBkg" style="display: table-cell; white-space: nowrap; line-height: 1.5; max-width: 200px; text-align: center;"><span class="edgeLabel"><p>&gt;=2</p></span></div></foreignObject></g></g><g class="edgeLabel"><g class="label" data-id="L_Selector_DS_0" transform="translate(0, 0)"><foreignObject width="0" height="0"><div xmlns="http://www.w3.org/1999/xhtml" class="labelBkg" style="display: table-cell; white-space: nowrap; line-height: 1.5; max-width: 200px; text-align: center;"><span class="edgeLabel"></span></div></foreignObject></g></g><g class="edgeLabel"><g class="label" data-id="L_Selector_Decision_0" transform="translate(0, 0)"><foreignObject width="0" height="0"><div xmlns="http://www.w3.org/1999/xhtml" class="labelBkg" style="display: table-cell; white-space: nowrap; line-height: 1.5; max-width: 200px; text-align: center;"><span class="edgeLabel"></span></div></foreignObject></g></g><g class="edgeLabel" transform="translate(320.734375, 1076.8529510498047)"><g class="label" data-id="L_Decision_TieEvent_0" transform="translate(-8.453125, -12)"><foreignObject width="16.90625" height="24"><div xmlns="http://www.w3.org/1999/xhtml" class="labelBkg" style="display: table-cell; white-space: nowrap; line-height: 1.5; max-width: 200px; text-align: center;"><span class="edgeLabel"><p>tie</p></span></div></foreignObject></g></g><g class="edgeLabel" transform="translate(513.54296875, 1076.8529510498047)"><g class="label" data-id="L_Decision_Resolve_0" transform="translate(-43.125, -12)"><foreignObject width="86.25" height="24"><div xmlns="http://www.w3.org/1999/xhtml" class="labelBkg" style="display: table-cell; white-space: nowrap; line-height: 1.5; max-width: 200px; text-align: center;"><span class="edgeLabel"><p>tier-0 / tier-1</p></span></div></foreignObject></g></g><g class="edgeLabel"><g class="label" data-id="L_Single_Resolve_0" transform="translate(0, 0)"><foreignObject width="0" height="0"><div xmlns="http://www.w3.org/1999/xhtml" class="labelBkg" style="display: table-cell; white-space: nowrap; line-height: 1.5; max-width: 200px; text-align: center;"><span class="edgeLabel"></span></div></foreignObject></g></g><g class="edgeLabel"><g class="label" data-id="L_Resolve_Find_0" transform="translate(0, 0)"><foreignObject width="0" height="0"><div xmlns="http://www.w3.org/1999/xhtml" class="labelBkg" style="display: table-cell; white-space: nowrap; line-height: 1.5; max-width: 200px; text-align: center;"><span class="edgeLabel"></span></div></foreignObject></g></g><g class="edgeLabel"><g class="label" data-id="L_Find_Articles_0" transform="translate(0, 0)"><foreignObject width="0" height="0"><div xmlns="http://www.w3.org/1999/xhtml" class="labelBkg" style="display: table-cell; white-space: nowrap; line-height: 1.5; max-width: 200px; text-align: center;"><span class="edgeLabel"></span></div></foreignObject></g></g><g class="edgeLabel"><g class="label" data-id="L_Find_Promote_0" transform="translate(0, 0)"><foreignObject width="0" height="0"><div xmlns="http://www.w3.org/1999/xhtml" class="labelBkg" style="display: table-cell; white-space: nowrap; line-height: 1.5; max-width: 200px; text-align: center;"><span class="edgeLabel"></span></div></foreignObject></g></g><g class="edgeLabel"><g class="label" data-id="L_Promote_S3Canon_0" transform="translate(0, 0)"><foreignObject width="0" height="0"><div xmlns="http://www.w3.org/1999/xhtml" class="labelBkg" style="display: table-cell; white-space: nowrap; line-height: 1.5; max-width: 200px; text-align: center;"><span class="edgeLabel"></span></div></foreignObject></g></g><g class="edgeLabel"><g class="label" data-id="L_Promote_Articles_0" transform="translate(0, 0)"><foreignObject width="0" height="0"><div xmlns="http://www.w3.org/1999/xhtml" class="labelBkg" style="display: table-cell; white-space: nowrap; line-height: 1.5; max-width: 200px; text-align: center;"><span class="edgeLabel"></span></div></foreignObject></g></g><g class="edgeLabel"><g class="label" data-id="L_Promote_Changed_0" transform="translate(0, 0)"><foreignObject width="0" height="0"><div xmlns="http://www.w3.org/1999/xhtml" class="labelBkg" style="display: table-cell; white-space: nowrap; line-height: 1.5; max-width: 200px; text-align: center;"><span class="edgeLabel"></span></div></foreignObject></g></g><g class="edgeLabel"><g class="label" data-id="L_Changed_CAC_0" transform="translate(0, 0)"><foreignObject width="0" height="0"><div xmlns="http://www.w3.org/1999/xhtml" class="labelBkg" style="display: table-cell; white-space: nowrap; line-height: 1.5; max-width: 200px; text-align: center;"><span class="edgeLabel"></span></div></foreignObject></g></g><g class="edgeLabel" transform="translate(1092.08203125, 1984.4623260498047)"><g class="label" data-id="L_Changed_Branch_0" transform="translate(-59.1484375, -12)"><foreignObject width="118.296875" height="24"><div xmlns="http://www.w3.org/1999/xhtml" class="labelBkg" style="display: table-cell; white-space: nowrap; line-height: 1.5; max-width: 200px; text-align: center;"><span class="edgeLabel"><p>yes, also publish</p></span></div></foreignObject></g></g><g class="edgeLabel" transform="translate(944.35546875, 2223.6342010498047)"><g class="label" data-id="L_Branch_LS_0" transform="translate(-12.453125, -12)"><foreignObject width="24.90625" height="24"><div xmlns="http://www.w3.org/1999/xhtml" class="labelBkg" style="display: table-cell; white-space: nowrap; line-height: 1.5; max-width: 200px; text-align: center;"><span class="edgeLabel"><p>yes</p></span></div></foreignObject></g></g><g class="edgeLabel" transform="translate(1239.80859375, 2223.6342010498047)"><g class="label" data-id="L_Branch_ALS_0" transform="translate(-8.8984375, -12)"><foreignObject width="17.796875" height="24"><div xmlns="http://www.w3.org/1999/xhtml" class="labelBkg" style="display: table-cell; white-space: nowrap; line-height: 1.5; max-width: 200px; text-align: center;"><span class="edgeLabel"><p>no</p></span></div></foreignObject></g></g></g><g class="nodes"><g class="node default event" id="my-svg-flowchart-Msg-0" data-look="classic" transform="translate(219.72265625, 247.9264678955078)"><g class="basic label-container outer-path"><path d="M-65.875 -55.5 C-38.03091234190186 -55.5, -10.18682468380372 -55.5, 65.875 -55.5 C65.875 -55.5, 65.875 -55.5, 65.875 -55.5 C67.01482702787912 -55.46344796575464, 68.15465405575826 -55.42689593150927, 69.43089720892957 -55.38596929764367 C70.54482526304055 -55.278509997958075, 71.65875331715154 -55.171050698272474, 72.97218247349008 -55.044345767190165 C74.36146579871816 -54.819737213220385, 75.75074912394625 -54.595128659250605, 76.48430389292615 -54.47653321300413 C77.46938532700378 -54.25169480393302, 78.45446676108142 -54.02685639486191, 79.95282940697766 -53.684864898666135 C81.1256508943456 -53.33677763748094, 82.29847238171355 -52.98869037629575, 83.36350610031094 -52.67259395909211 C84.1017588092934 -52.40091013785334, 84.84001151827586 -52.129226316614556, 86.70231877080526 -51.44388003270421 C87.82297489339908 -50.94779881031467, 88.94363101599289 -50.45171758792514, 89.95554752102447 -50.00377216858426 C90.90695690762513 -49.50742250100149, 91.8583662942258 -49.01107283341872, 93.10982413621853 -48.358188078848116 C94.1445644882249 -47.73092239665259, 95.17930484023128 -47.10365671445705, 96.15218701718544 -46.51388982149716 C97.31838890681854 -45.70039786735525, 98.48459079645163 -44.88690591321335, 99.07013444226249 -44.47845601367159 C100.0946967004957 -43.661394877477335, 101.11925895872892 -42.84433374128308, 101.85167593958224 -42.260250689486966 C102.88137813626372 -41.32510239888801, 103.91108033294522 -40.38995410828906, 104.48538155849349 -39.86838893042388 C105.29570853675608 -39.031659796285574, 106.10603551501868 -38.19493066214727, 106.96042883768001 -37.3126994095031 C107.68500312217876 -36.46157322548609, 108.40957740667751 -35.61044704146909, 109.26664727697565 -34.603684003159714 C110.10584034017836 -33.47924175052891, 110.94503340338107 -32.35479949789809, 111.39456013013104 -31.752474636780427 C111.94795573308261 -30.902310383120422, 112.50135133603416 -30.052146129460418, 113.33542334679672 -28.770787541234146 C113.73601659945817 -28.05949365666825, 114.13660985211962 -27.34819977210235, 115.08126150370151 -25.670875108366356 C115.52686999525149 -24.745559541168518, 115.97247848680145 -23.82024397397068, 116.62490057737759 -22.46547554329287 C117.02589199346231 -21.47501899292199, 117.42688340954703 -20.484562442551105, 117.95999742376169 -19.1677605203826 C118.22006239624396 -18.3844862589923, 118.48012736872623 -17.601211997601997, 119.08106584353466 -15.791281058022316 C119.38970365166944 -14.61431133113221, 119.69834145980421 -13.437341604242103, 119.9834991260912 -12.349911834575455 C120.17633495190833 -11.359740624870746, 120.36917077772546 -10.369569415166037, 120.66358897950198 -8.857794174352568 C120.83314742844506 -7.54273232745301, 121.00270587738814 -6.227670480553451, 121.1185407686805 -5.3292779378763475 C121.2010384676416 -4.044309685613307, 121.28353616660267 -2.759341433350265, 121.34648499913817 -1.7788625552268618 C121.34648499913817 -0.7264863016505811, 121.34648499913817 0.3258899519256995, 121.34648499913817 1.7788625552268482 C121.28893328709609 2.6752769251881094, 121.23138157505402 3.571691295149371, 121.1185407686805 5.32927793787631 C120.9996635771811 6.251265960189026, 120.8807863856817 7.173253982501741, 120.66358897950198 8.857794174352529 C120.52329028121923 9.578198337894033, 120.3829915829365 10.29860250143554, 119.9834991260912 12.349911834575442 C119.69098602658138 13.465391058985661, 119.39847292707157 14.580870283395878, 119.08106584353467 15.79128105802228 C118.72174668023165 16.873493128156987, 118.36242751692862 17.955705198291692, 117.9599974237617 19.16776052038256 C117.49803434767743 20.308818249759206, 117.03607127159314 21.44987597913585, 116.62490057737759 22.465475543292854 C116.0533306166303 23.652352796422598, 115.48176065588302 24.83923004955234, 115.08126150370151 25.670875108366346 C114.61232888721185 26.50351245352023, 114.14339627072216 27.336149798674114, 113.33542334679672 28.770787541234135 C112.93626321807434 29.384004688454212, 112.53710308935196 29.99722183567429, 111.39456013013105 31.7524746367804 C110.6702081394699 32.72304031444244, 109.94585614880877 33.693605992104494, 109.26664727697566 34.6036840031597 C108.67826277102276 35.29483392387882, 108.08987826506984 35.985983844597946, 106.96042883768003 37.31269940950306 C106.33579117487545 37.95768908005464, 105.7111535120709 38.60267875060623, 104.48538155849351 39.86838893042387 C103.45199388607313 40.806884272576546, 102.41860621365274 41.745379614729224, 101.8516759395823 42.26025068948693 C101.21786056555382 42.76570158373919, 100.58404519152535 43.27115247799144, 99.0701344422625 44.47845601367158 C98.17871259618383 45.1002733044663, 97.28729075010516 45.72209059526101, 96.15218701718548 46.51388982149714 C95.23905533764542 47.0674356117917, 94.32592365810537 47.62098140208627, 93.10982413621855 48.358188078848116 C92.12918213491633 48.8697883827963, 91.1485401336141 49.38138868674449, 89.95554752102449 50.003772168584256 C88.77174076526515 50.527808302979196, 87.5879340095058 51.05184443737413, 86.70231877080529 51.4438800327042 C85.37844515613624 51.93107776065595, 84.05457154146718 52.418275488607705, 83.36350610031099 52.6725939590921 C82.63323340546599 52.8893350616425, 81.90296071062099 53.10607616419289, 79.95282940697771 53.68486489866612 C79.23632708541543 53.848401877948106, 78.51982476385312 54.01193885723009, 76.48430389292618 54.476533213004124 C75.29612720896509 54.66862840481915, 74.107950525004 54.86072359663418, 72.97218247349011 55.04434576719016 C71.72748598263284 55.16442014069661, 70.48278949177558 55.284494514203075, 69.43089720892957 55.38596929764367 C68.48061043276688 55.416443144934206, 67.53032365660421 55.44691699222474, 65.87500000000001 55.5 C65.87500000000001 55.5, 65.875 55.5, 65.875 55.5 C37.24258514623196 55.5, 8.61017029246392 55.5, -65.87499999999999 55.5 C-66.71607476720213 55.47302836926855, -67.55714953440426 55.446056738537095, -69.43089720892954 55.38596929764367 C-70.55126242674527 55.2778890125173, -71.67162764456101 55.16980872739092, -72.9721824734901 55.04434576719016 C-73.8652638040442 54.899959303615326, -74.7583451345983 54.7555728400405, -76.48430389292616 54.476533213004124 C-77.2010557779796 54.31293927248384, -77.91780766303303 54.14934533196355, -79.95282940697764 53.684864898666135 C-81.11569784916784 53.3397316490451, -82.27856629135803 52.99459839942406, -83.36350610031091 52.67259395909212 C-84.49308226115123 52.25689949021532, -85.62265842199156 51.84120502133851, -86.70231877080526 51.44388003270421 C-87.37706564916641 51.145189605308715, -88.05181252752756 50.84649917791323, -89.95554752102447 50.00377216858427 C-90.60564813406992 49.66461509516777, -91.25574874711539 49.32545802175127, -93.10982413621852 48.35818807884812 C-93.91350795676898 47.87099022386006, -94.71719177731946 47.383792368871994, -96.15218701718541 46.51388982149718 C-97.09876827452683 45.853595713218006, -98.04534953186825 45.19330160493883, -99.07013444226249 44.4784560136716 C-99.73561223320257 43.94775518450462, -100.40109002414266 43.417054355337655, -101.85167593958224 42.26025068948697 C-102.56432098595212 41.61304531392852, -103.27696603232201 40.96583993837006, -104.48538155849347 39.868388930423905 C-105.02141927390444 39.31488597974718, -105.55745698931541 38.76138302907045, -106.96042883768001 37.31269940950308 C-107.568809002315 36.59806145031077, -108.17718916695 35.883423491118464, -109.26664727697565 34.60368400315972 C-109.93235322995481 33.71169867322758, -110.59805918293398 32.81971334329544, -111.39456013013104 31.752474636780434 C-111.86792174756042 31.025264077016807, -112.34128336498978 30.29805351725318, -113.33542334679669 28.77078754123417 C-113.6907313429581 28.139902215213564, -114.0460393391195 27.50901688919296, -115.0812615037015 25.670875108366364 C-115.60407278781658 24.585246290531956, -116.12688407193166 23.499617472697544, -116.62490057737759 22.465475543292875 C-116.96700568902149 21.62046930338004, -117.30911080066541 20.775463063467207, -117.95999742376169 19.167760520382608 C-118.26447151489991 18.250733069232762, -118.56894560603811 17.333705618082917, -119.08106584353466 15.791281058022301 C-119.37160760750592 14.683319390402835, -119.66214937147718 13.575357722783368, -119.9834991260912 12.349911834575463 C-120.14260275245135 11.532948339779473, -120.30170637881149 10.715984844983481, -120.66358897950198 8.857794174352573 C-120.76585617031232 8.064630037368673, -120.86812336112264 7.271465900384774, -121.1185407686805 5.3292779378763795 C-121.19745750503925 4.100086068645734, -121.276374241398 2.8708941994150883, -121.34648499913817 1.7788625552268686 C-121.34648499913817 0.9927013864737461, -121.34648499913817 0.20654021772062348, -121.34648499913817 -1.7788625552268416 C-121.2835720322055 -2.7587827976361776, -121.22065906527283 -3.7387030400455137, -121.1185407686805 -5.329277937876303 C-121.02201695288514 -6.077897592401846, -120.92549313708976 -6.82651724692739, -120.66358897950198 -8.857794174352547 C-120.40537242496823 -10.183681607795227, -120.14715587043447 -11.509569041237906, -119.9834991260912 -12.349911834575437 C-119.65851864958537 -13.589203238921666, -119.33353817307955 -14.828494643267893, -119.08106584353467 -15.791281058022273 C-118.66098037519973 -17.056511557117233, -118.24089490686478 -18.32174205621219, -117.95999742376172 -19.167760520382537 C-117.63285006225978 -19.975820828256275, -117.30570270075785 -20.78388113613001, -116.62490057737759 -22.46547554329285 C-116.1260204818083 -23.501410736066553, -115.62714038623899 -24.537345928840256, -115.08126150370151 -25.67087510836634 C-114.68558148892231 -26.373445041553012, -114.28990147414312 -27.076014974739685, -113.33542334679672 -28.770787541234153 C-112.92522974688922 -29.40095506309643, -112.51503614698173 -30.031122584958702, -111.39456013013105 -31.752474636780416 C-110.7346832492037 -32.63664954120253, -110.07480636827633 -33.52082444562465, -109.26664727697568 -34.6036840031597 C-108.36079663138233 -35.66774771583557, -107.45494598578898 -36.731811428511435, -106.96042883768004 -37.31269940950306 C-106.01845266585575 -38.28536714459363, -105.07647649403145 -39.258034879684196, -104.48538155849351 -39.86838893042385 C-103.7771313095313 -40.51160306725662, -103.0688810605691 -41.154817204089404, -101.8516759395823 -42.260250689486924 C-101.18658264631215 -42.79064489199403, -100.521489353042 -43.32103909450113, -99.07013444226251 -44.47845601367158 C-98.45867455389823 -44.90498396212256, -97.84721466553394 -45.331511910573525, -96.15218701718548 -46.51388982149714 C-95.4014698776377 -46.968978963194616, -94.65075273808989 -47.424068104892086, -93.10982413621855 -48.35818807884811 C-92.25717272474616 -48.803015774063965, -91.40452131327376 -49.24784346927982, -89.9555475210245 -50.003772168584256 C-88.99188336304945 -50.43035770523822, -88.02821920507441 -50.85694324189219, -86.70231877080529 -51.44388003270419 C-85.88265475392176 -51.745523967808445, -85.06299073703823 -52.0471679029127, -83.36350610031099 -52.6725939590921 C-82.40319594430916 -52.957608972622566, -81.44288578830734 -53.242623986153035, -79.95282940697771 -53.68486489866611 C-78.78981970318654 -53.95031427420887, -77.62680999939536 -54.21576364975163, -76.48430389292619 -54.47653321300412 C-75.14041536470152 -54.693802688236296, -73.79652683647686 -54.911072163468475, -72.97218247349012 -55.04434576719016 C-72.21858461999756 -55.11704444578257, -71.46498676650498 -55.18974312437498, -69.43089720892957 -55.38596929764367 C-68.13136712557868 -55.42764269803487, -66.83183704222779 -55.46931609842608, -65.87500000000001 -55.5 C-65.87500000000001 -55.5, -65.875 -55.5, -65.875 -55.5" stroke="none" stroke-width="0" fill="#ffb976" style="fill:#ffb976 !important;stroke:#a85800 !important"/><path d="M-65.875 -55.5 C-18.536543809595116 -55.5, 28.801912380809767 -55.5, 65.875 -55.5 M-65.875 -55.5 C-32.4723316966065 -55.5, 0.9303366067869945 -55.5, 65.875 -55.5 M65.875 -55.5 C65.875 -55.5, 65.875 -55.5, 65.875 -55.5 M65.875 -55.5 C65.875 -55.5, 65.875 -55.5, 65.875 -55.5 M65.875 -55.5 C67.25272280182574 -55.4558191113202, 68.63044560365148 -55.411638222640406, 69.43089720892957 -55.38596929764367 M65.875 -55.5 C66.71378550072113 -55.47310178158881, 67.55257100144226 -55.44620356317761, 69.43089720892957 -55.38596929764367 M69.43089720892957 -55.38596929764367 C70.29543131746273 -55.302568731947865, 71.1599654259959 -55.219168166252054, 72.97218247349008 -55.044345767190165 M69.43089720892957 -55.38596929764367 C70.27427552012048 -55.3046096062739, 71.11765383131142 -55.22324991490413, 72.97218247349008 -55.044345767190165 M72.97218247349008 -55.044345767190165 C73.84151754070835 -54.90379841531645, 74.71085260792661 -54.76325106344274, 76.48430389292615 -54.47653321300413 M72.97218247349008 -55.044345767190165 C73.70408971240691 -54.9260166808275, 74.43599695132373 -54.80768759446484, 76.48430389292615 -54.47653321300413 M76.48430389292615 -54.47653321300413 C77.84166630677213 -54.16672409966132, 79.1990287206181 -53.85691498631852, 79.95282940697766 -53.684864898666135 M76.48430389292615 -54.47653321300413 C77.28066677689878 -54.29476858149086, 78.07702966087142 -54.11300394997758, 79.95282940697766 -53.684864898666135 M79.95282940697766 -53.684864898666135 C81.0300793370957 -53.365142774007374, 82.10732926721373 -53.045420649348614, 83.36350610031094 -52.67259395909211 M79.95282940697766 -53.684864898666135 C80.71547340577783 -53.45851616302228, 81.47811740457801 -53.23216742737843, 83.36350610031094 -52.67259395909211 M83.36350610031094 -52.67259395909211 C84.06399672032423 -52.41480693566292, 84.76448734033751 -52.157019912233714, 86.70231877080526 -51.44388003270421 M83.36350610031094 -52.67259395909211 C84.15853305240844 -52.38001669157165, 84.95356000450596 -52.08743942405118, 86.70231877080526 -51.44388003270421 M86.70231877080526 -51.44388003270421 C87.68222077736029 -51.01010648216255, 88.6621227839153 -50.57633293162089, 89.95554752102447 -50.00377216858426 M86.70231877080526 -51.44388003270421 C87.52566171455831 -51.07941053510539, 88.34900465831136 -50.71494103750657, 89.95554752102447 -50.00377216858426 M89.95554752102447 -50.00377216858426 C90.73215758462052 -49.59861519584869, 91.50876764821659 -49.19345822311311, 93.10982413621853 -48.358188078848116 M89.95554752102447 -50.00377216858426 C91.02661531104226 -49.44499678858364, 92.09768310106007 -48.88622140858302, 93.10982413621853 -48.358188078848116 M93.10982413621853 -48.358188078848116 C94.11242918788797 -47.750403004564824, 95.1150342395574 -47.142617930281524, 96.15218701718544 -46.51388982149716 M93.10982413621853 -48.358188078848116 C93.88099101527384 -47.89070218488518, 94.65215789432915 -47.423216290922234, 96.15218701718544 -46.51388982149716 M96.15218701718544 -46.51388982149716 C96.83729594755619 -46.03598748955812, 97.52240487792693 -45.55808515761908, 99.07013444226249 -44.47845601367159 M96.15218701718544 -46.51388982149716 C96.99208729552234 -45.928011746026385, 97.83198757385925 -45.34213367055561, 99.07013444226249 -44.47845601367159 M99.07013444226249 -44.47845601367159 C100.0515669964971 -43.695789668686594, 101.03299955073173 -42.91312332370159, 101.85167593958224 -42.260250689486966 M99.07013444226249 -44.47845601367159 C100.10821600441142 -43.65061359236834, 101.14629756656035 -42.82277117106509, 101.85167593958224 -42.260250689486966 M101.85167593958224 -42.260250689486966 C102.73590709294595 -41.45721535147632, 103.62013824630968 -40.654180013465684, 104.48538155849349 -39.86838893042388 M101.85167593958224 -42.260250689486966 C102.47294622104991 -41.6960294577689, 103.0942165025176 -41.131808226050836, 104.48538155849349 -39.86838893042388 M104.48538155849349 -39.86838893042388 C105.11259460387596 -39.22073996591777, 105.73980764925845 -38.57309100141166, 106.96042883768001 -37.3126994095031 M104.48538155849349 -39.86838893042388 C105.36197596627008 -38.96323323465522, 106.23857037404667 -38.058077538886565, 106.96042883768001 -37.3126994095031 M106.96042883768001 -37.3126994095031 C107.48633827232267 -36.694936262477256, 108.01224770696531 -36.07717311545142, 109.26664727697565 -34.603684003159714 M106.96042883768001 -37.3126994095031 C107.72741165089118 -36.411757754546834, 108.49439446410236 -35.51081609959057, 109.26664727697565 -34.603684003159714 M109.26664727697565 -34.603684003159714 C109.71085557503183 -34.008485351972894, 110.15506387308801 -33.41328670078607, 111.39456013013104 -31.752474636780427 M109.26664727697565 -34.603684003159714 C109.84238014920702 -33.832254404713346, 110.41811302143839 -33.06082480626698, 111.39456013013104 -31.752474636780427 M111.39456013013104 -31.752474636780427 C112.15826517347753 -30.579218606681692, 112.92197021682401 -29.405962576582958, 113.33542334679672 -28.770787541234146 M111.39456013013104 -31.752474636780427 C111.93435890134253 -30.923198767933705, 112.47415767255404 -30.093922899086984, 113.33542334679672 -28.770787541234146 M113.33542334679672 -28.770787541234146 C113.99279021604607 -27.60356609926827, 114.65015708529543 -26.4363446573024, 115.08126150370151 -25.670875108366356 M113.33542334679672 -28.770787541234146 C113.82050578214827 -27.909474557344485, 114.30558821749985 -27.04816157345482, 115.08126150370151 -25.670875108366356 M115.08126150370151 -25.670875108366356 C115.65359015691058 -24.48242241410628, 116.22591881011967 -23.293969719846206, 116.62490057737759 -22.46547554329287 M115.08126150370151 -25.670875108366356 C115.65977396699505 -24.46958160015357, 116.23828643028857 -23.26828809194079, 116.62490057737759 -22.46547554329287 M116.62490057737759 -22.46547554329287 C117.08762852044715 -21.322528577674863, 117.55035646351672 -20.179581612056854, 117.95999742376169 -19.1677605203826 M116.62490057737759 -22.46547554329287 C117.06605516441869 -21.375815184157634, 117.5072097514598 -20.2861548250224, 117.95999742376169 -19.1677605203826 M117.95999742376169 -19.1677605203826 C118.19366155089614 -18.464001398776457, 118.42732567803058 -17.760242277170313, 119.08106584353466 -15.791281058022316 M117.95999742376169 -19.1677605203826 C118.3798303780313 -17.903290553419794, 118.79966333230091 -16.638820586456987, 119.08106584353466 -15.791281058022316 M119.08106584353466 -15.791281058022316 C119.40494890923894 -14.55617455668328, 119.72883197494322 -13.321068055344242, 119.9834991260912 -12.349911834575455 M119.08106584353466 -15.791281058022316 C119.36732893789113 -14.69963581203117, 119.6535920322476 -13.607990566040023, 119.9834991260912 -12.349911834575455 M119.9834991260912 -12.349911834575455 C120.22156815873649 -11.127477667849787, 120.45963719138177 -9.90504350112412, 120.66358897950198 -8.857794174352568 M119.9834991260912 -12.349911834575455 C120.217758457602 -11.147039677994783, 120.45201778911279 -9.944167521414112, 120.66358897950198 -8.857794174352568 M120.66358897950198 -8.857794174352568 C120.80193786317571 -7.784787552656283, 120.94028674684945 -6.711780930959998, 121.1185407686805 -5.3292779378763475 M120.66358897950198 -8.857794174352568 C120.78304942589872 -7.931282542232748, 120.90250987229548 -7.004770910112927, 121.1185407686805 -5.3292779378763475 M121.1185407686805 -5.3292779378763475 C121.17231436938086 -4.4917107016991356, 121.2260879700812 -3.6541434655219236, 121.34648499913817 -1.7788625552268618 M121.1185407686805 -5.3292779378763475 C121.19782365549145 -4.094382979801487, 121.27710654230239 -2.8594880217266256, 121.34648499913817 -1.7788625552268618 M121.34648499913817 -1.7788625552268618 C121.34648499913817 -0.3809810387230954, 121.34648499913817 1.016900477780671, 121.34648499913817 1.7788625552268482 M121.34648499913817 -1.7788625552268618 C121.34648499913817 -0.7027728839086924, 121.34648499913817 0.37331678740947694, 121.34648499913817 1.7788625552268482 M121.34648499913817 1.7788625552268482 C121.28650721549428 2.713064948675909, 121.22652943185041 3.6472673421249695, 121.1185407686805 5.32927793787631 M121.34648499913817 1.7788625552268482 C121.2703119956241 2.965318570700287, 121.19413899211003 4.151774586173726, 121.1185407686805 5.32927793787631 M121.1185407686805 5.32927793787631 C120.95131430165614 6.626253393516232, 120.78408783463178 7.923228849156155, 120.66358897950198 8.857794174352529 M121.1185407686805 5.32927793787631 C120.9406482942478 6.708976840733999, 120.76275581981508 8.088675743591686, 120.66358897950198 8.857794174352529 M120.66358897950198 8.857794174352529 C120.40073171252354 10.20751068538378, 120.1378744455451 11.557227196415027, 119.9834991260912 12.349911834575442 M120.66358897950198 8.857794174352529 C120.43433220309294 10.034979267776102, 120.20507542668389 11.212164361199676, 119.9834991260912 12.349911834575442 M119.9834991260912 12.349911834575442 C119.73495568624476 13.297715690118174, 119.48641224639832 14.245519545660907, 119.08106584353467 15.79128105802228 M119.9834991260912 12.349911834575442 C119.77009711825995 13.163706179451268, 119.5566951104287 13.977500524327093, 119.08106584353467 15.79128105802228 M119.08106584353467 15.79128105802228 C118.74242842531814 16.811203007145053, 118.4037910071016 17.831124956267825, 117.9599974237617 19.16776052038256 M119.08106584353467 15.79128105802228 C118.81298048633074 16.598711440319466, 118.54489512912681 17.406141822616654, 117.9599974237617 19.16776052038256 M117.9599974237617 19.16776052038256 C117.44149917903117 20.44846120934858, 116.92300093430065 21.729161898314594, 116.62490057737759 22.465475543292854 M117.9599974237617 19.16776052038256 C117.54879760839859 20.183432014337065, 117.13759779303547 21.199103508291568, 116.62490057737759 22.465475543292854 M116.62490057737759 22.465475543292854 C116.26965859490521 23.203143120857522, 115.91441661243283 23.94081069842219, 115.08126150370151 25.670875108366346 M116.62490057737759 22.465475543292854 C116.16192293463773 23.4268585245768, 115.69894529189787 24.388241505860748, 115.08126150370151 25.670875108366346 M115.08126150370151 25.670875108366346 C114.60122856291494 26.523222203339103, 114.12119562212835 27.37556929831186, 113.33542334679672 28.770787541234135 M115.08126150370151 25.670875108366346 C114.57621759764906 26.567631704803524, 114.07117369159661 27.464388301240703, 113.33542334679672 28.770787541234135 M113.33542334679672 28.770787541234135 C112.56776384947082 29.95011867456481, 111.80010435214494 31.12944980789548, 111.39456013013105 31.7524746367804 M113.33542334679672 28.770787541234135 C112.89987091920227 29.439913032222258, 112.46431849160783 30.109038523210383, 111.39456013013105 31.7524746367804 M111.39456013013105 31.7524746367804 C110.92999333276424 32.374951822346034, 110.46542653539741 32.99742900791167, 109.26664727697566 34.6036840031597 M111.39456013013105 31.7524746367804 C110.74251131919186 32.62616064057021, 110.09046250825266 33.499846644360034, 109.26664727697566 34.6036840031597 M109.26664727697566 34.6036840031597 C108.66947577759369 35.30515562635469, 108.07230427821172 36.00662724954968, 106.96042883768003 37.31269940950306 M109.26664727697566 34.6036840031597 C108.59211151164014 35.39603209529517, 107.91757574630462 36.18838018743064, 106.96042883768003 37.31269940950306 M106.96042883768003 37.31269940950306 C106.05179853069625 38.25093480139939, 105.14316822371246 39.189170193295716, 104.48538155849351 39.86838893042387 M106.96042883768003 37.31269940950306 C106.30149619870541 37.99310145862014, 105.64256355973077 38.67350350773721, 104.48538155849351 39.86838893042387 M104.48538155849351 39.86838893042387 C103.54864262915488 40.71911044129531, 102.61190369981625 41.569831952166744, 101.8516759395823 42.26025068948693 M104.48538155849351 39.86838893042387 C103.52368467197076 40.741776597658564, 102.56198778544801 41.61516426489326, 101.8516759395823 42.26025068948693 M101.8516759395823 42.26025068948693 C101.00637342264923 42.93435695229637, 100.16107090571616 43.60846321510581, 99.0701344422625 44.47845601367158 M101.8516759395823 42.26025068948693 C101.19091240261999 42.78719202655818, 100.53014886565768 43.31413336362944, 99.0701344422625 44.47845601367158 M99.0701344422625 44.47845601367158 C98.11258674328133 45.14639983690904, 97.15503904430015 45.814343660146505, 96.15218701718548 46.51388982149714 M99.0701344422625 44.47845601367158 C98.37744691893569 44.96164484398477, 97.68475939560888 45.44483367429795, 96.15218701718548 46.51388982149714 M96.15218701718548 46.51388982149714 C95.07485469612077 47.16697500563403, 93.99752237505606 47.82006018977092, 93.10982413621855 48.358188078848116 M96.15218701718548 46.51388982149714 C95.41878142582648 46.95848460094862, 94.68537583446748 47.4030793804001, 93.10982413621855 48.358188078848116 M93.10982413621855 48.358188078848116 C92.23103918241625 48.81664962635815, 91.35225422861396 49.275111173868176, 89.95554752102449 50.003772168584256 M93.10982413621855 48.358188078848116 C92.3041506298509 48.778507431061605, 91.49847712348326 49.1988267832751, 89.95554752102449 50.003772168584256 M89.95554752102449 50.003772168584256 C89.24930148727694 50.316406337680064, 88.54305545352939 50.629040506775866, 86.70231877080529 51.4438800327042 M89.95554752102449 50.003772168584256 C88.95868025360066 50.445055736855956, 87.96181298617682 50.88633930512766, 86.70231877080529 51.4438800327042 M86.70231877080529 51.4438800327042 C85.46501268709324 51.89922010904229, 84.22770660338118 52.354560185380386, 83.36350610031099 52.6725939590921 M86.70231877080529 51.4438800327042 C85.53839405161249 51.87221508856931, 84.37446933241966 52.30055014443443, 83.36350610031099 52.6725939590921 M83.36350610031099 52.6725939590921 C82.08652936238148 53.051593951921895, 80.80955262445197 53.43059394475169, 79.95282940697771 53.68486489866612 M83.36350610031099 52.6725939590921 C82.32835147765151 52.979822417459935, 81.29319685499205 53.287050875827774, 79.95282940697771 53.68486489866612 M79.95282940697771 53.68486489866612 C79.19178259164421 53.8585688679714, 78.43073577631071 54.03227283727668, 76.48430389292618 54.476533213004124 M79.95282940697771 53.68486489866612 C79.06078881765663 53.8884673420698, 78.16874822833553 54.092069785473484, 76.48430389292618 54.476533213004124 M76.48430389292618 54.476533213004124 C75.27291937130785 54.6723804680321, 74.06153484968954 54.86822772306009, 72.97218247349011 55.04434576719016 M76.48430389292618 54.476533213004124 C75.53571429583428 54.62989382263975, 74.58712469874237 54.78325443227538, 72.97218247349011 55.04434576719016 M72.97218247349011 55.04434576719016 C71.57411877609967 55.17921529065982, 70.17605507870923 55.31408481412948, 69.43089720892957 55.38596929764367 M72.97218247349011 55.04434576719016 C71.63879186048833 55.17297635598961, 70.30540124748654 55.30160694478906, 69.43089720892957 55.38596929764367 M69.43089720892957 55.38596929764367 C68.67728796158363 55.41013607939464, 67.9236787142377 55.43430286114561, 65.87500000000001 55.5 M69.43089720892957 55.38596929764367 C68.61840071483148 55.41202447878091, 67.8059042207334 55.438079659918145, 65.87500000000001 55.5 M65.87500000000001 55.5 C65.87500000000001 55.5, 65.87500000000001 55.5, 65.875 55.5 M65.87500000000001 55.5 C65.87500000000001 55.5, 65.875 55.5, 65.875 55.5 M65.875 55.5 C34.7515390761107 55.5, 3.6280781522214127 55.5, -65.87499999999999 55.5 M65.875 55.5 C22.226393126684343 55.5, -21.422213746631314 55.5, -65.87499999999999 55.5 M-65.87499999999999 55.5 C-66.83979781412683 55.469060811965974, -67.80459562825365 55.43812162393195, -69.43089720892954 55.38596929764367 M-65.87499999999999 55.5 C-66.9472061477308 55.465616435764936, -68.01941229546162 55.431232871529865, -69.43089720892954 55.38596929764367 M-69.43089720892954 55.38596929764367 C-70.32479349145355 55.29973619833615, -71.21868977397756 55.21350309902862, -72.9721824734901 55.04434576719016 M-69.43089720892954 55.38596929764367 C-70.57660202401469 55.27544453204404, -71.72230683909983 55.16491976644441, -72.9721824734901 55.04434576719016 M-72.9721824734901 55.04434576719016 C-74.35213349116538 54.82124598833239, -75.73208450884064 54.59814620947462, -76.48430389292616 54.476533213004124 M-72.9721824734901 55.04434576719016 C-73.86040316506438 54.900745134030764, -74.74862385663866 54.75714450087138, -76.48430389292616 54.476533213004124 M-76.48430389292616 54.476533213004124 C-77.86935545635633 54.160404231957315, -79.2544070197865 53.844275250910506, -79.95282940697764 53.684864898666135 M-76.48430389292616 54.476533213004124 C-77.47808815721204 54.24970843972926, -78.4718724214979 54.02288366645439, -79.95282940697764 53.684864898666135 M-79.95282940697764 53.684864898666135 C-81.03600072156452 53.36338533817901, -82.11917203615138 53.04190577769187, -83.36350610031091 52.67259395909212 M-79.95282940697764 53.684864898666135 C-80.93036266263272 53.394738159564476, -81.90789591828779 53.10461142046282, -83.36350610031091 52.67259395909212 M-83.36350610031091 52.67259395909212 C-84.2506909840581 52.34610172082599, -85.13787586780528 52.019609482559865, -86.70231877080526 51.44388003270421 M-83.36350610031091 52.67259395909212 C-84.32430148960206 52.31901237433776, -85.28509687889321 51.9654307895834, -86.70231877080526 51.44388003270421 M-86.70231877080526 51.44388003270421 C-87.61347005817477 51.04054038612835, -88.52462134554428 50.6372007395525, -89.95554752102447 50.00377216858427 M-86.70231877080526 51.44388003270421 C-87.6699727593976 51.01552831639009, -88.63762674798993 50.58717660007596, -89.95554752102447 50.00377216858427 M-89.95554752102447 50.00377216858427 C-91.18072389523714 49.36459843892044, -92.4059002694498 48.72542470925661, -93.10982413621852 48.35818807884812 M-89.95554752102447 50.00377216858427 C-91.09836578070335 49.40756461451983, -92.24118404038224 48.81135706045538, -93.10982413621852 48.35818807884812 M-93.10982413621852 48.35818807884812 C-94.00592965283082 47.814963648577205, -94.90203516944311 47.27173921830629, -96.15218701718541 46.51388982149718 M-93.10982413621852 48.35818807884812 C-94.21776156022574 47.68654990145194, -95.32569898423296 47.01491172405576, -96.15218701718541 46.51388982149718 M-96.15218701718541 46.51388982149718 C-97.1217919181524 45.837535416102284, -98.09139681911938 45.16118101070739, -99.07013444226249 44.4784560136716 M-96.15218701718541 46.51388982149718 C-96.78414869521093 46.0730607120867, -97.41611037323645 45.63223160267622, -99.07013444226249 44.4784560136716 M-99.07013444226249 44.4784560136716 C-100.09250350241103 43.66314389458642, -101.11487256255957 42.84783177550124, -101.85167593958224 42.26025068948697 M-99.07013444226249 44.4784560136716 C-99.68506065013115 43.98806872676997, -100.29998685799981 43.497681439868344, -101.85167593958224 42.26025068948697 M-101.85167593958224 42.26025068948697 C-102.78666389533959 41.411119366493836, -103.72165185109694 40.561988043500705, -104.48538155849347 39.868388930423905 M-101.85167593958224 42.26025068948697 C-102.89114962019512 41.316228195720825, -103.93062330080801 40.372205701954684, -104.48538155849347 39.868388930423905 M-104.48538155849347 39.868388930423905 C-105.44737677730154 38.87504988572825, -106.40937199610961 37.88171084103261, -106.96042883768001 37.31269940950308 M-104.48538155849347 39.868388930423905 C-105.11911045792503 39.21401181165054, -105.75283935735659 38.55963469287719, -106.96042883768001 37.31269940950308 M-106.96042883768001 37.31269940950308 C-107.51012068075947 36.66700009227001, -108.05981252383893 36.02130077503693, -109.26664727697565 34.60368400315972 M-106.96042883768001 37.31269940950308 C-107.62355984510918 36.533747994953515, -108.28669085253836 35.75479658040395, -109.26664727697565 34.60368400315972 M-109.26664727697565 34.60368400315972 C-110.10931140678558 33.47459083749591, -110.95197553659551 32.345497671832106, -111.39456013013104 31.752474636780434 M-109.26664727697565 34.60368400315972 C-109.94471505297773 33.695134956562114, -110.62278282897982 32.786585909964515, -111.39456013013104 31.752474636780434 M-111.39456013013104 31.752474636780434 C-112.0200870645922 30.791497287947116, -112.64561399905337 29.8305199391138, -113.33542334679669 28.77078754123417 M-111.39456013013104 31.752474636780434 C-111.8413126086988 31.066142859862495, -112.28806508726656 30.37981108294456, -113.33542334679669 28.77078754123417 M-113.33542334679669 28.77078754123417 C-114.01985974969786 27.555501401181992, -114.70429615259903 26.34021526112981, -115.0812615037015 25.670875108366364 M-113.33542334679669 28.77078754123417 C-113.74047392839779 28.051579217782436, -114.14552450999888 27.332370894330705, -115.0812615037015 25.670875108366364 M-115.0812615037015 25.670875108366364 C-115.5808455416287 24.633478164224513, -116.08042957955591 23.59608122008266, -116.62490057737759 22.465475543292875 M-115.0812615037015 25.670875108366364 C-115.50930249138763 24.782038838826168, -115.93734347907375 23.893202569285975, -116.62490057737759 22.465475543292875 M-116.62490057737759 22.465475543292875 C-117.11798062312 21.24755829725493, -117.61106066886244 20.029641051216984, -117.95999742376169 19.167760520382608 M-116.62490057737759 22.465475543292875 C-117.08785332190214 21.321973313734823, -117.55080606642669 20.178471084176767, -117.95999742376169 19.167760520382608 M-117.95999742376169 19.167760520382608 C-118.40177235934377 17.837204801686603, -118.84354729492584 16.5066490829906, -119.08106584353466 15.791281058022301 M-117.95999742376169 19.167760520382608 C-118.31213683822861 18.107172709804633, -118.66427625269552 17.046584899226655, -119.08106584353466 15.791281058022301 M-119.08106584353466 15.791281058022301 C-119.32199258632056 14.872522969468827, -119.56291932910646 13.953764880915354, -119.9834991260912 12.349911834575463 M-119.08106584353466 15.791281058022301 C-119.35377706506695 14.751314976528587, -119.62648828659925 13.711348895034874, -119.9834991260912 12.349911834575463 M-119.9834991260912 12.349911834575463 C-120.16137047237622 11.436580064524232, -120.33924181866125 10.523248294473001, -120.66358897950198 8.857794174352573 M-119.9834991260912 12.349911834575463 C-120.24609499464735 11.001537549196131, -120.5086908632035 9.653163263816799, -120.66358897950198 8.857794174352573 M-120.66358897950198 8.857794174352573 C-120.8449585818222 7.451127354235917, -121.02632818414243 6.04446053411926, -121.1185407686805 5.3292779378763795 M-120.66358897950198 8.857794174352573 C-120.77748227582148 7.974460258873783, -120.89137557214097 7.091126343394993, -121.1185407686805 5.3292779378763795 M-121.1185407686805 5.3292779378763795 C-121.1799977917354 4.37203519658015, -121.2414548147903 3.414792455283921, -121.34648499913817 1.7788625552268686 M-121.1185407686805 5.3292779378763795 C-121.18634257888671 4.273210015278463, -121.25414438909293 3.217142092680546, -121.34648499913817 1.7788625552268686 M-121.34648499913817 1.7788625552268686 C-121.34648499913817 0.6747747946877383, -121.34648499913817 -0.4293129658513921, -121.34648499913817 -1.7788625552268416 M-121.34648499913817 1.7788625552268686 C-121.34648499913817 0.8314774599558374, -121.34648499913817 -0.11590763531519377, -121.34648499913817 -1.7788625552268416 M-121.34648499913817 -1.7788625552268416 C-121.30050699478453 -2.495007085811995, -121.25452899043088 -3.2111516163971485, -121.1185407686805 -5.329277937876303 M-121.34648499913817 -1.7788625552268416 C-121.29680374640785 -2.5526881684870864, -121.24712249367752 -3.326513781747331, -121.1185407686805 -5.329277937876303 M-121.1185407686805 -5.329277937876303 C-120.98502155394755 -6.36482660099392, -120.85150233921459 -7.4003752641115375, -120.66358897950198 -8.857794174352547 M-121.1185407686805 -5.329277937876303 C-120.95718409512723 -6.580728434476324, -120.79582742157395 -7.832178931076344, -120.66358897950198 -8.857794174352547 M-120.66358897950198 -8.857794174352547 C-120.48638655048538 -9.767691195606163, -120.30918412146877 -10.677588216859778, -119.9834991260912 -12.349911834575437 M-120.66358897950198 -8.857794174352547 C-120.4766994971335 -9.81743216720866, -120.289810014765 -10.77707016006477, -119.9834991260912 -12.349911834575437 M-119.9834991260912 -12.349911834575437 C-119.7958635675359 -13.065447541112281, -119.60822800898062 -13.780983247649125, -119.08106584353467 -15.791281058022273 M-119.9834991260912 -12.349911834575437 C-119.6766789040838 -13.519950317815093, -119.36985868207638 -14.68998880105475, -119.08106584353467 -15.791281058022273 M-119.08106584353467 -15.791281058022273 C-118.63694821759556 -17.128892586816647, -118.19283059165646 -18.466504115611023, -117.95999742376172 -19.167760520382537 M-119.08106584353467 -15.791281058022273 C-118.78584047424218 -16.680452832556547, -118.49061510494967 -17.569624607090823, -117.95999742376172 -19.167760520382537 M-117.95999742376172 -19.167760520382537 C-117.65958611789587 -19.909782253928668, -117.35917481203002 -20.6518039874748, -116.62490057737759 -22.46547554329285 M-117.95999742376172 -19.167760520382537 C-117.62569122148317 -19.993503303381285, -117.29138501920461 -20.819246086380033, -116.62490057737759 -22.46547554329285 M-116.62490057737759 -22.46547554329285 C-116.27436223353367 -23.193375914603795, -115.92382388968974 -23.921276285914736, -115.08126150370151 -25.67087510836634 M-116.62490057737759 -22.46547554329285 C-116.25145761600047 -23.240937842991794, -115.87801465462333 -24.01640014269074, -115.08126150370151 -25.67087510836634 M-115.08126150370151 -25.67087510836634 C-114.5440929286124 -26.624672307653597, -114.00692435352329 -27.57846950694086, -113.33542334679672 -28.770787541234153 M-115.08126150370151 -25.67087510836634 C-114.41387227110125 -26.85589227133607, -113.74648303850101 -28.040909434305803, -113.33542334679672 -28.770787541234153 M-113.33542334679672 -28.770787541234153 C-112.74817180435306 -29.672963609546695, -112.16092026190942 -30.57513967785924, -111.39456013013105 -31.752474636780416 M-113.33542334679672 -28.770787541234153 C-112.80512396013017 -29.5854698044779, -112.27482457346363 -30.400152067721642, -111.39456013013105 -31.752474636780416 M-111.39456013013105 -31.752474636780416 C-110.76810681650889 -32.59186500596318, -110.14165350288674 -33.431255375145945, -109.26664727697568 -34.6036840031597 M-111.39456013013105 -31.752474636780416 C-110.61652669767346 -32.79496855596975, -109.83849326521587 -33.837462475159086, -109.26664727697568 -34.6036840031597 M-109.26664727697568 -34.6036840031597 C-108.49903174566863 -35.505368884794045, -107.73141621436159 -36.4070537664284, -106.96042883768004 -37.31269940950306 M-109.26664727697568 -34.6036840031597 C-108.65660908241345 -35.32026957864911, -108.04657088785123 -36.036855154138514, -106.96042883768004 -37.31269940950306 M-106.96042883768004 -37.31269940950306 C-106.41931055644439 -37.87144846151598, -105.87819227520873 -38.4301975135289, -104.48538155849351 -39.86838893042385 M-106.96042883768004 -37.31269940950306 C-106.1269314483722 -38.173353895371704, -105.29343405906438 -39.03400838124034, -104.48538155849351 -39.86838893042385 M-104.48538155849351 -39.86838893042385 C-103.72098191493963 -40.56259646179322, -102.95658227138574 -41.256803993162585, -101.8516759395823 -42.260250689486924 M-104.48538155849351 -39.86838893042385 C-103.76420487263373 -40.52334251523222, -103.04302818677394 -41.1782961000406, -101.8516759395823 -42.260250689486924 M-101.8516759395823 -42.260250689486924 C-101.10108160802253 -42.858829694751826, -100.35048727646274 -43.45740870001673, -99.07013444226251 -44.47845601367158 M-101.8516759395823 -42.260250689486924 C-100.7966173295413 -43.10163185470588, -99.7415587195003 -43.943013019924834, -99.07013444226251 -44.47845601367158 M-99.07013444226251 -44.47845601367158 C-98.19220786451551 -45.09085958947887, -97.3142812867685 -45.70326316528616, -96.15218701718548 -46.51388982149714 M-99.07013444226251 -44.47845601367158 C-98.14457354736632 -45.12408722706579, -97.21901265247013 -45.76971844046, -96.15218701718548 -46.51388982149714 M-96.15218701718548 -46.51388982149714 C-95.0379686860829 -47.18933552168524, -93.92375035498031 -47.86478122187334, -93.10982413621855 -48.35818807884811 M-96.15218701718548 -46.51388982149714 C-95.15863784170871 -47.116185170414205, -94.16508866623194 -47.718480519331266, -93.10982413621855 -48.35818807884811 M-93.10982413621855 -48.35818807884811 C-91.92201271416654 -48.97786853690312, -90.73420129211455 -49.59754899495812, -89.9555475210245 -50.003772168584256 M-93.10982413621855 -48.35818807884811 C-92.0970874399039 -48.88653216462665, -91.08435074358925 -49.41487625040519, -89.9555475210245 -50.003772168584256 M-89.9555475210245 -50.003772168584256 C-88.69288528692825 -50.56271528407429, -87.43022305283199 -51.12165839956432, -86.70231877080529 -51.44388003270419 M-89.9555475210245 -50.003772168584256 C-88.66377524092715 -50.575601437920135, -87.37200296082982 -51.147430707256014, -86.70231877080529 -51.44388003270419 M-86.70231877080529 -51.44388003270419 C-85.71586061313748 -51.8069057534452, -84.72940245546965 -52.16993147418621, -83.36350610031099 -52.6725939590921 M-86.70231877080529 -51.44388003270419 C-85.38814430269443 -51.927508385064606, -84.07396983458356 -52.411136737425025, -83.36350610031099 -52.6725939590921 M-83.36350610031099 -52.6725939590921 C-82.5526290153375 -52.91325802153155, -81.74175193036403 -53.153922083971004, -79.95282940697771 -53.68486489866611 M-83.36350610031099 -52.6725939590921 C-82.59846268776619 -52.89965482814058, -81.83341927522139 -53.12671569718905, -79.95282940697771 -53.68486489866611 M-79.95282940697771 -53.68486489866611 C-78.59689826774097 -53.994347332919304, -77.24096712850422 -54.303829767172495, -76.48430389292619 -54.47653321300412 M-79.95282940697771 -53.68486489866611 C-79.24453563328612 -53.84652833046239, -78.53624185959454 -54.008191762258676, -76.48430389292619 -54.47653321300412 M-76.48430389292619 -54.47653321300412 C-75.11769250142812 -54.6974763445519, -73.75108110993007 -54.918419476099686, -72.97218247349012 -55.04434576719016 M-76.48430389292619 -54.47653321300412 C-75.31784966112964 -54.66511648721332, -74.15139542933308 -54.85369976142252, -72.97218247349012 -55.04434576719016 M-72.97218247349012 -55.04434576719016 C-72.23760043351265 -55.11521001312263, -71.50301839353517 -55.1860742590551, -69.43089720892957 -55.38596929764367 M-72.97218247349012 -55.04434576719016 C-71.69227777091876 -55.16781663453661, -70.4123730683474 -55.29128750188305, -69.43089720892957 -55.38596929764367 M-69.43089720892957 -55.38596929764367 C-68.31366717331316 -55.42179669032954, -67.19643713769676 -55.45762408301542, -65.87500000000001 -55.5 M-69.43089720892957 -55.38596929764367 C-68.61747873831123 -55.41205404477339, -67.8040602676929 -55.43813879190312, -65.87500000000001 -55.5 M-65.87500000000001 -55.5 C-65.87500000000001 -55.5, -65.875 -55.5, -65.875 -55.5 M-65.87500000000001 -55.5 C-65.87500000000001 -55.5, -65.875 -55.5, -65.875 -55.5" stroke="#a85800" stroke-width="1.3" fill="none" stroke-dasharray="0 0" style="fill:#ffb976 !important;stroke:#a85800 !important"/></g><g class="label" style="color:#000 !important" transform="translate(-100, -48)"><rect/><foreignObject width="200" height="96"><div style="color: rgb(0, 0, 0) !important; display: table; white-space: break-spaces; line-height: 1.5; max-width: 200px; text-align: center; width: 200px;" xmlns="http://www.w3.org/1999/xhtml"><span style="color:#000 !important" class="nodeLabel"><p>SQS message<br />TierContentExtractedEvent detail<br />url, tier, userId?</p></span></div></foreignObject></g></g><g class="node default queue" id="my-svg-flowchart-Q-1" data-look="classic" transform="translate(219.72265625, 75.2132339477539)"><path d="M0,15.808823529411764 a107.5,15.808823529411764 0,0,0 215,0 a107.5,15.808823529411764 0,0,0 -215,0 l0,102.80882352941177 a107.5,15.808823529411764 0,0,0 215,0 l0,-102.80882352941177" class="basic label-container outer-path" style="fill:#e8e8e8 !important;stroke:#666 !important" transform="translate(-107.5, -67.21323529411765)"/><g class="label" style="color:#000 !important" transform="translate(-100, -26)"><rect/><foreignObject width="200" height="72"><div style="color: rgb(0, 0, 0) !important; display: table; white-space: break-spaces; line-height: 1.5; max-width: 200px; text-align: center; width: 200px;" xmlns="http://www.w3.org/1999/xhtml"><span style="color:#000 !important" class="nodeLabel"><p>select-most-complete-content<br />vis 90s, maxReceive 3</p></span></div></foreignObject></g></g><g class="node default system" id="my-svg-flowchart-List-4" data-look="classic" transform="translate(219.72265625, 416.4264678955078)"><rect class="basic label-container" style="fill:#fff2a8 !important;stroke:#a08a00 !important" x="-130" y="-63" width="260" height="126"/><g class="label" style="color:#000 !important" transform="translate(-100, -48)"><rect/><foreignObject width="200" height="96"><div style="color: rgb(0, 0, 0) !important; display: table; white-space: break-spaces; line-height: 1.5; max-width: 200px; text-align: center; width: 200px;" xmlns="http://www.w3.org/1999/xhtml"><span style="color:#000 !important" class="nodeLabel"><p>listAvailableTierSources<br />read S3 sources/.html + sidecar<br />for each known tier</p></span></div></foreignObject></g></g><g class="node default store" id="my-svg-flowchart-S3Sources-7" data-look="classic" transform="translate(176.765625, 620.6397094726562)"><path d="M0,15.808823529411764 a107.5,15.808823529411764 0,0,0 215,0 a107.5,15.808823529411764 0,0,0 -215,0 l0,150.80882352941177 a107.5,15.808823529411764 0,0,0 215,0 l0,-150.80882352941177" class="basic label-container outer-path" style="fill:#b8e8c5 !important;stroke:#2f7a45 !important" transform="translate(-107.5, -91.21323529411765)"/><g class="label" style="color:#000 !important" transform="translate(-100, -50)"><rect/><foreignObject width="200" height="120"><div style="color: rgb(0, 0, 0) !important; display: table; white-space: break-spaces; line-height: 1.5; max-width: 200px; text-align: center; width: 200px;" xmlns="http://www.w3.org/1999/xhtml"><span style="color:#000 !important" class="nodeLabel"><p>S3 articles//sources/<br />tier-0.html, tier-0.metadata.json,<br />tier-1.html, tier-1.metadata.json</p></span></div></foreignObject></g></g><g class="node default policy" id="my-svg-flowchart-Count-10" data-look="classic" transform="translate(409.7265625, 620.6397094726562)"><polygon points="75.4609375,0 150.921875,-75.4609375 75.4609375,-150.921875 0,-75.4609375" class="label-container" transform="translate(-74.9609375, 75.4609375)" style="fill:#d6b8ff !important;stroke:#6b3fb0 !important"/><g class="label" style="color:#000 !important" transform="translate(-36.4609375, -24)"><rect/><foreignObject width="72.921875" height="48"><div style="color: rgb(0, 0, 0) !important; display: table-cell; white-space: nowrap; line-height: 1.5; max-width: 200px; text-align: center;" xmlns="http://www.w3.org/1999/xhtml"><span style="color:#000 !important" class="nodeLabel"><p>how many<br />sources?</p></span></div></foreignObject></g></g><g class="node default policy" id="my-svg-flowchart-NoOp-14" data-look="classic" transform="translate(138, 836.8529510498047)"><rect class="basic label-container" style="fill:#d6b8ff !important;stroke:#6b3fb0 !important" x="-130" y="-51" width="260" height="102"/><g class="label" style="color:#000 !important" transform="translate(-100, -36)"><rect/><foreignObject width="200" height="72"><div style="color: rgb(0, 0, 0) !important; display: table; white-space: break-spaces; line-height: 1.5; max-width: 200px; text-align: center; width: 200px;" xmlns="http://www.w3.org/1999/xhtml"><span style="color:#000 !important" class="nodeLabel"><p>log + skip<br />race window: sidecar not yet readable</p></span></div></foreignObject></g></g><g class="node default policy" id="my-svg-flowchart-Single-16" data-look="classic" transform="translate(803.828125, 988.8529510498047)"><rect class="basic label-container" style="fill:#d6b8ff !important;stroke:#6b3fb0 !important" x="-130" y="-51" width="260" height="102"/><g class="label" style="color:#000 !important" transform="translate(-100, -36)"><rect/><foreignObject width="200" height="72"><div style="color: rgb(0, 0, 0) !important; display: table; white-space: break-spaces; line-height: 1.5; max-width: 200px; text-align: center; width: 200px;" xmlns="http://www.w3.org/1999/xhtml"><span style="color:#000 !important" class="nodeLabel"><p>winner = the one tier present<br />reason = only available tier</p></span></div></foreignObject></g></g><g class="node default system" id="my-svg-flowchart-Selector-18" data-look="classic" transform="translate(448.4921875, 836.8529510498047)"><rect class="basic label-container" style="fill:#fff2a8 !important;stroke:#a08a00 !important" x="-130.4921875" y="-39" width="260.984375" height="78"/><g class="label" style="color:#000 !important" transform="translate(-100.4921875, -24)"><rect/><foreignObject width="200.984375" height="48"><div style="color: rgb(0, 0, 0) !important; display: table; white-space: break-spaces; line-height: 1.5; max-width: 200px; text-align: center; width: 200px;" xmlns="http://www.w3.org/1999/xhtml"><span style="color:#000 !important" class="nodeLabel"><p>selectMostCompleteContent<br />variadic candidates</p></span></div></foreignObject></g></g><g class="node default system" id="my-svg-flowchart-DS-19" data-look="classic" transform="translate(540.4609375, 988.8529510498047)"><rect class="basic label-container" style="fill:#fff2a8 !important;stroke:#a08a00 !important" x="-83.3671875" y="-39" width="166.734375" height="78"/><g class="label" style="color:#000 !important" transform="translate(-53.3671875, -24)"><rect/><foreignObject width="106.734375" height="48"><div style="color: rgb(0, 0, 0) !important; display: table-cell; white-space: nowrap; line-height: 1.5; max-width: 200px; text-align: center;" xmlns="http://www.w3.org/1999/xhtml"><span style="color:#000 !important" class="nodeLabel"><p>Deepseek chat<br />JSON-mode</p></span></div></foreignObject></g></g><g class="node default policy" id="my-svg-flowchart-Decision-22" data-look="classic" transform="translate(356.5234375, 988.8529510498047)"><polygon points="50.5703125,0 101.140625,-50.5703125 50.5703125,-101.140625 0,-50.5703125" class="label-container" transform="translate(-50.0703125, 50.5703125)" style="fill:#d6b8ff !important;stroke:#6b3fb0 !important"/><g class="label" style="color:#000 !important" transform="translate(-23.5703125, -12)"><rect/><foreignObject width="47.140625" height="24"><div style="color: rgb(0, 0, 0) !important; display: table-cell; white-space: nowrap; line-height: 1.5; max-width: 200px; text-align: center;" xmlns="http://www.w3.org/1999/xhtml"><span style="color:#000 !important" class="nodeLabel"><p>winner</p></span></div></foreignObject></g></g><g class="node default policy" id="my-svg-flowchart-TieEvent-26" data-look="classic" transform="translate(320.734375, 1188.8529510498047)"><rect class="basic label-container" style="fill:#d6b8ff !important;stroke:#6b3fb0 !important" x="-134.0390625" y="-75" width="268.078125" height="150"/><g class="label" style="color:#000 !important" transform="translate(-104.0390625, -60)"><rect/><foreignObject width="208.078125" height="120"><div style="color: rgb(0, 0, 0) !important; display: table; white-space: break-spaces; line-height: 1.5; max-width: 200px; text-align: center; width: 200px;" xmlns="http://www.w3.org/1999/xhtml"><span style="color:#000 !important" class="nodeLabel"><p>publish CrawlArticleCompletedEvent only<br />canonical untouched, no LinkSaved</p></span></div></foreignObject></g></g><g class="node default system" id="my-svg-flowchart-Resolve-28" data-look="classic" transform="translate(737.1953125, 1188.8529510498047)"><rect class="basic label-container" style="fill:#fff2a8 !important;stroke:#a08a00 !important" x="-130" y="-39" width="260" height="78"/><g class="label" style="color:#000 !important" transform="translate(-100, -24)"><rect/><foreignObject width="200" height="48"><div style="color: rgb(0, 0, 0) !important; display: table; white-space: break-spaces; line-height: 1.5; max-width: 200px; text-align: center; width: 200px;" xmlns="http://www.w3.org/1999/xhtml"><span style="color:#000 !important" class="nodeLabel"><p>winnerSource = sources find by tier</p></span></div></foreignObject></g></g><g class="node default system" id="my-svg-flowchart-Find-31" data-look="classic" transform="translate(737.1953125, 1352.8529510498047)"><rect class="basic label-container" style="fill:#fff2a8 !important;stroke:#a08a00 !important" x="-109.75" y="-39" width="219.5" height="78"/><g class="label" style="color:#000 !important" transform="translate(-79.75, -24)"><rect/><foreignObject width="159.5" height="48"><div style="color: rgb(0, 0, 0) !important; display: table-cell; white-space: nowrap; line-height: 1.5; max-width: 200px; text-align: center;" xmlns="http://www.w3.org/1999/xhtml"><span style="color:#000 !important" class="nodeLabel"><p>findContentSourceTier<br />read Dynamo column</p></span></div></foreignObject></g></g><g class="node default store" id="my-svg-flowchart-Articles-32" data-look="classic" transform="translate(514.5078125, 1866.6576385498047)"><path d="M0,13.801164678873397 a77.0234375,13.801164678873397 0,0,0 154.046875,0 a77.0234375,13.801164678873397 0,0,0 -154.046875,0 l0,76.80116467887339 a77.0234375,13.801164678873397 0,0,0 154.046875,0 l0,-76.80116467887339" class="basic label-container outer-path" style="fill:#b8e8c5 !important;stroke:#2f7a45 !important" transform="translate(-77.0234375, -52.201747018310094)"/><g class="label" style="color:#000 !important" transform="translate(-69.5234375, -14)"><rect/><foreignObject width="139.046875" height="48"><div style="color: rgb(0, 0, 0) !important; display: table-cell; white-space: nowrap; line-height: 1.5; max-width: 200px; text-align: center;" xmlns="http://www.w3.org/1999/xhtml"><span style="color:#000 !important" class="nodeLabel"><p>DynamoDB articles<br />contentSourceTier?</p></span></div></foreignObject></g></g><g class="node default system" id="my-svg-flowchart-Promote-37" data-look="classic" transform="translate(847.59375, 1588.8529510498047)"><rect class="basic label-container" style="fill:#fff2a8 !important;stroke:#a08a00 !important" x="-130" y="-147" width="260" height="294"/><g class="label" style="color:#000 !important" transform="translate(-100, -132)"><rect/><foreignObject width="200" height="264"><div style="color: rgb(0, 0, 0) !important; display: table; white-space: break-spaces; line-height: 1.5; max-width: 200px; text-align: center; width: 200px;" xmlns="http://www.w3.org/1999/xhtml"><span style="color:#000 !important" class="nodeLabel"><p>promoteTierToCanonical<br />S3 CopyObject sources/.html → content.html<br />Dynamo SET title, siteName, excerpt, wordCount,<br />estimatedReadTime, imageUrl?, contentLocation,<br />contentSourceTier=, contentFetchedAt</p></span></div></foreignObject></g></g><g class="node default store" id="my-svg-flowchart-S3Canon-40" data-look="classic" transform="translate(735.3046875, 1866.6576385498047)"><path d="M0,15.001499775033745 a93.7734375,15.001499775033745 0,0,0 187.546875,0 a93.7734375,15.001499775033745 0,0,0 -187.546875,0 l0,78.00149977503375 a93.7734375,15.001499775033745 0,0,0 187.546875,0 l0,-78.00149977503375" class="basic label-container outer-path" style="fill:#b8e8c5 !important;stroke:#2f7a45 !important" transform="translate(-93.7734375, -54.00224966255062)"/><g class="label" style="color:#000 !important" transform="translate(-86.2734375, -14)"><rect/><foreignObject width="172.546875" height="48"><div style="color: rgb(0, 0, 0) !important; display: table-cell; white-space: nowrap; line-height: 1.5; max-width: 200px; text-align: center;" xmlns="http://www.w3.org/1999/xhtml"><span style="color:#000 !important" class="nodeLabel"><p>S3 content//content.html<br />canonical bytes</p></span></div></foreignObject></g></g><g class="node default policy" id="my-svg-flowchart-Changed-45" data-look="classic" transform="translate(959.8828125, 1866.6576385498047)"><polygon points="80.8046875,0 161.609375,-80.8046875 80.8046875,-161.609375 0,-80.8046875" class="label-container" transform="translate(-80.3046875, 80.8046875)" style="fill:#d6b8ff !important;stroke:#6b3fb0 !important"/><g class="label" style="color:#000 !important" transform="translate(-41.8046875, -24)"><rect/><foreignObject width="83.609375" height="48"><div style="color: rgb(0, 0, 0) !important; display: table-cell; white-space: nowrap; line-height: 1.5; max-width: 200px; text-align: center;" xmlns="http://www.w3.org/1999/xhtml"><span style="color:#000 !important" class="nodeLabel"><p>currentTier<br />!== winner?</p></span></div></foreignObject></g></g><g class="node default policy" id="my-svg-flowchart-CAC-48" data-look="classic" transform="translate(827.68359375, 2104.0482635498047)"><rect class="basic label-container" style="fill:#d6b8ff !important;stroke:#6b3fb0 !important" x="-131.8125" y="-63" width="263.625" height="126"/><g class="label" style="color:#000 !important" transform="translate(-101.8125, -48)"><rect/><foreignObject width="203.625" height="96"><div style="color: rgb(0, 0, 0) !important; display: table; white-space: break-spaces; line-height: 1.5; max-width: 200px; text-align: center; width: 200px;" xmlns="http://www.w3.org/1999/xhtml"><span style="color:#000 !important" class="nodeLabel"><p>publish CrawlArticleCompletedEvent<br />always after successful promote</p></span></div></foreignObject></g></g><g class="node default policy" id="my-svg-flowchart-Branch-51" data-look="classic" transform="translate(1092.08203125, 2104.0482635498047)"><polygon points="82.5859375,0 165.171875,-82.5859375 82.5859375,-165.171875 0,-82.5859375" class="label-container" transform="translate(-82.0859375, 82.5859375)" style="fill:#d6b8ff !important;stroke:#6b3fb0 !important"/><g class="label" style="color:#000 !important" transform="translate(-43.5859375, -24)"><rect/><foreignObject width="87.171875" height="48"><div style="color: rgb(0, 0, 0) !important; display: table-cell; white-space: nowrap; line-height: 1.5; max-width: 200px; text-align: center;" xmlns="http://www.w3.org/1999/xhtml"><span style="color:#000 !important" class="nodeLabel"><p>detail.userId<br />present?</p></span></div></foreignObject></g></g><g class="node default policy" id="my-svg-flowchart-LS-55" data-look="classic" transform="translate(944.35546875, 2311.6342010498047)"><rect class="basic label-container" style="fill:#d6b8ff !important;stroke:#6b3fb0 !important" x="-115.390625" y="-39" width="230.78125" height="78"/><g class="label" style="color:#000 !important" transform="translate(-85.390625, -24)"><rect/><foreignObject width="170.78125" height="48"><div style="color: rgb(0, 0, 0) !important; display: table-cell; white-space: nowrap; line-height: 1.5; max-width: 200px; text-align: center;" xmlns="http://www.w3.org/1999/xhtml"><span style="color:#000 !important" class="nodeLabel"><p>publish LinkSavedEvent<br />url, userId</p></span></div></foreignObject></g></g><g class="node default policy" id="my-svg-flowchart-ALS-57" data-look="classic" transform="translate(1239.80859375, 2311.6342010498047)"><rect class="basic label-container" style="fill:#d6b8ff !important;stroke:#6b3fb0 !important" x="-130.0625" y="-51" width="260.125" height="102"/><g class="label" style="color:#000 !important" transform="translate(-100.0625, -36)"><rect/><foreignObject width="200.125" height="72"><div style="color: rgb(0, 0, 0) !important; display: table; white-space: break-spaces; line-height: 1.5; max-width: 200px; text-align: center; width: 200px;" xmlns="http://www.w3.org/1999/xhtml"><span style="color:#000 !important" class="nodeLabel"><p>publish AnonymousLinkSavedEvent<br />url</p></span></div></foreignObject></g></g></g></g></g><defs><filter id="my-svg-drop-shadow" height="130%" width="130%"><feDropShadow dx="4" dy="4" stdDeviation="0" flood-opacity="0.06" flood-color="#000000"/></filter></defs><defs><filter id="my-svg-drop-shadow-small" height="150%" width="150%"><feDropShadow dx="2" dy="2" stdDeviation="0" flood-opacity="0.06" flood-color="#000000"/></filter></defs></svg>